<?xml version="1.0" encoding="UTF-8"?>
<svg id="Travel_Untamed" xmlns="http://www.w3.org/2000/svg" version="1.1" viewBox="0 0 432 371.3">
  <!-- Generator: Adobe Illustrator 29.5.1, SVG Export Plug-In . SVG Version: 2.1.0 Build 141)  -->
  <defs>
    <style>
      .st0 {
        fill: #fff;
      }
    </style>
  </defs>
  <g>
    <path class="st0" d="M431.9,150.6c-1.8,8.6-10.5,37.4-47.1,42.1-31.5,4.1-56.4-14-60.7-17.3-.4-.3-1-.4-1.5-.2l-9.3,3.7c-1,.4-1.3,1.8-.4,2.5,1.6,1.5,3.1,3.2,4.3,5.2,10,16.8,13.2,39.7,1.7,65.7-.3.6.2,1.4.9,1.3,4.8-.4,19.4-1.7,25.6-2.2,1.3-.1,2.1-1.5,1.6-2.7-.3-.7-.7-1.5-1-2.2-.9-2.2-1.8-4.5-2.5-6.9-.3-.9-1.2-1.3-2-.9-2.1.9-6.2,2.7-11.4,4.3-1.2.4-2.3-.7-1.9-1.9,1.5-5.6,2.5-11.1,2.8-16.5.1-.7.6-1.3,1.4-1.4l21-1.8c.8-.1,1.5.5,1.6,1.4.7,8.2,6.9,47.3,58.4,43.7.9-.1,1.6.6,1.6,1.5v24c0,.9-.8,1.6-1.7,1.5-2.2-.3-6.2-1-11.3-2.4-9.1-2.5-21.5-7.1-32.9-15.5-1.7-1.3-3.5-2.7-5.2-4.2-1.3-1.1-3.2.4-2.3,1.8,6.6,11.4,19.6,22.9,45.2,22.9s4.3-.1,6.6-.2c.9-.1,1.6.6,1.6,1.5v24.1c0,.9-.8,1.6-1.7,1.5-9.6-1.4-56.6-10.5-69.8-53.9-.2-.8-1.1-1.2-1.9-.9-4.6,2.1-19.2,8.2-34.6,8.2s-34.1-7.2-40.3-34.6c-.4-1.7-2.9-1.3-2.7.4.2,2,.5,4.2.9,6.4.2,1.2-1,2.1-2,1.6-2.6-1.2-7.1-2.6-14-2.6s-18.3,1.7-32.4,7.5c-23,9.4-56,21.4-92.6,21.4s-41.3-3.6-62.5-13.3c-.6-.3-1.3-.1-1.7.3l-23.8,25.9c-.3.3-.4.6-.4,1v25.6c0,.8-.7,1.5-1.5,1.5l-32.3-.3c-1.2,0-1.9-1.4-1.2-2.4l59.8-80.3c.5-.7,1.5-.8,2.1-.3,2.8,2.2,10.7,7.5,23.5,10.6.6.2,1.2-.1,1.6-.6l9.6-12.9c.5-.7,1.5-.8,2.1-.3,1.1.9,3.1,2.3,5.9,3.8,1.2.7,2.6-.5,2.1-1.8-5.7-14-11.1-35.9,1.8-50.9,14.5-16.9,18.1-31,18.9-37.8.2-1.3-1.3-2.1-2.2-1.3-4.1,3.6-10.5,4.4-17.1,4.4h-2.2c-7.7,0-14,4.7-15.4,5.9-.2.1-.3.3-.4.5l-4.2,9.1c-.2.5-.7.8-1.2.9l-14.2,1.2c-.5.1-1.1-.2-1.4-.6l-10.5-15.4c-.4-.5-.4-1.3,0-1.8l25.3-33c.6-.8,1.9-.8,2.5,0l.9,1.5c.3.5.8.7,1.3.7h6c.4,0,.8-.2,1-.4l5.2-4.9c.7-.6,1.8-.5,2.3.3l2.7,4.3c.3.5.8.7,1.3.7h9.1c.3,0,.6,0,.9-.3l12.6-9.7c.3-.2.6-.3.9-.3h5.9c1.8,0,3.5-1,4.4-2.5l.2-.3h-45.9c-1.2,0-1.9-1.4-1.2-2.4l1.7-2.3c.2-.3.3-.6.3-.9v-17.3c0-1.3,1.5-2,2.5-1.1l7.8,7.1c1,.9,2.5.2,2.5-1.1v-11.3c0-1.3,1.5-2,2.5-1.1l8.6,7.8c.3.3.8.4,1.2.4,1.1,0,3.6-.4,7.1-.4,17.9,0,60.9,7,65.6,73.6.1.6-.3,1.3-.8,1.6-5.5,3.1-11.3,5.2-16.4,6.7q-.1,0-.2.1c-.2.1-.3.3-.3.5,0,.3.3.5.6.5h0c10.2-1.8,17.1-3.9,17.1-3.9,0,0,47.5-11.4,57.2-81.5.1-.5.3-.9.8-1.1L393.7.2c1.2-.6,2.5.5,2.2,1.7-2.2,7.2-5.9,12.6-9.6,16.5-.9,1-.1,2.4,1,2.4s.4,0,.6-.1c1.1-.5,2.3.6,1.9,1.7-3.3,9.4-8.2,15.4-12,18.9-.7.6,0,1.7.9,1.3l2.7-1.2c1.4-.6,2.8.7,2.3,2.1-3.6,10.2-8.8,16.1-12.4,19.6-.6.5.1,1.5.8,1.1l3.4-1.8c1.2-.7,2.6.5,2.1,1.8-3.9,11-9.1,16.7-12.8,20.1-.5.4.1,1.2.6.9l4.7-2.5c1.1-.6,2.2.5,1.9,1.6-4.2,13.3-13.2,22.1-23.4,26.3l-51.4,19.5c-.4.1-.7.5-.9.8-2,5-18.9,41.3-56.9,63.9-.6.4-.1,1.2.5,1,6.7-3,17-8.5,27.1-17.2,5.3-4.6,12.1-7.1,19-7.1s3.6.2,5.3.5c2.9.5,6,1.3,9,2.4.5.2,1.2,0,1.6-.4l20.7-21.6c.4-.5,1.1-.6,1.7-.4,6.6,2.9,47.9,18.7,105.6-3.1,1.2-.3,2.3.6,2,1.7Z"/>
    <path class="st0" d="M79.9,278.1l-7.3,7.9c-.3.4-.5.8-.5,1.3v28.5c0,1.1-.9,2-2,1.9l-29.9-.3h-1.3c-1.6,0-2.5-1.8-1.6-3l2.8-4.1,26.3-38.1c.5-.7,1.5-1,2.3-.7,1,.4,2.1.8,3.1,1.1,2.3.8,4.7,1.6,7.1,2.3,1.5.5,2,2.2,1,3.2Z"/>
  </g>
  <path class="st0" d="M227.8,78.2c-11.6,4.6-15.8,8.8-20.4,20.4-.2.6-1,.6-1.2,0-4.6-11.6-8.8-15.8-20.4-20.4-.6-.2-.6-1,0-1.2,11.6-4.6,15.8-8.8,20.4-20.4.2-.6,1-.6,1.2,0,4.6,11.6,8.8,15.8,20.4,20.4.6.2.6,1,0,1.2Z"/>
  <path class="st0" d="M78.7,199.2c-10.1,4-13.7,7.7-17.8,17.8-.2.6-1,.6-1.2,0-4-10.1-7.7-13.7-17.8-17.8-.6-.2-.6-1,0-1.2,10.1-4,13.7-7.7,17.8-17.8.2-.6,1-.6,1.2,0,4,10.1,7.7,13.7,17.8,17.8.6.2.6,1,0,1.2Z"/>
  <path class="st0" d="M38.9,199.2c-5.1,2.1-7.1,4.2-9.2,9.2-.2.5-1,.5-1.2,0-2.1-5.1-4.2-7.1-9.2-9.2-.5-.2-.5-1,0-1.2,5.1-2.1,7.1-4.2,9.2-9.2.2-.5,1-.5,1.2,0,2.1,5.1,4.2,7.1,9.2,9.2.5.2.5.9,0,1.2Z"/>
  <path class="st0" d="M429.8,246.4c-8,3.2-11,6.2-14.2,14.2-.2.5-1,.5-1.2,0-3.2-8-6.2-11-14.2-14.2-.5-.2-.5-1,0-1.2,8-3.2,11-6.2,14.2-14.2.2-.5,1-.5,1.2,0,3.2,8,6.2,11,14.2,14.2.5.3.5,1,0,1.2Z"/>
  <g>
    <g>
      <path class="st0" d="M36.7,349.5v-14.5c0-2.9.4-3.3,3.3-3.3,4.6,0,9.1,0,13.7.1,3.4.1,6.6.9,9.9,1.8,2.4.7,4.2,2.2,5.5,4.2,1.6,2.3,2.4,4.8,2.5,7.6,0,2.3,0,4.6,0,6.9-.2,4.1-1.5,7.9-3.9,11.3-.7,1.1-1.7,1.9-2.8,2.6-3.3,2.2-7,3.3-10.9,3.5-4.5.2-9,.1-13.5.2-.4,0-.8,0-1.2-.1-1.6-.2-2.2-.8-2.3-2.5,0-.9-.2-1.7-.2-2.6,0-3.5,0-6.9,0-10.4,0-1.6,0-3.2,0-4.8h0ZM48.5,349.8v11.6c0,1,0,2,.2,2.9,0,.6,0,1.2.6,1.5.7.4,1.2-.3,1.7-.6,3.7-2.8,6.3-6.4,8.3-10.5.6-1.2,1.1-2.6,1.2-3.9.5-4.3-.2-8.5-2.1-12.4-.5-1-1.2-1.8-2.2-2.4-1.8-1-3.8-1.4-5.8-1.6s-1.5.4-1.7,1.4c0,.6,0,1.1,0,1.7-.1,4.1-.1,8.2-.1,12.3Z"/>
      <path class="st0" d="M76.2,349.8c0-4.8,0-10,.2-15.2v-.5c0-1.8.7-2.3,2.5-2.4h6.1c2.8,0,5.7.1,8.5.1s5.4.3,8.1.7c1.3.2,2.6.6,3.8,1.2,1.2.7,2.1,1.6,2.5,2.9s.8,2.5,1.1,3.8c1.2,4.4-1.8,11.2-8.2,12.2-.5.1-1,.1-1.5.3-.4.1-.7.5-.5.9,0,.4.3.8.4,1.1.9,1.7,2.1,3,3.7,4,2.5,1.7,5.3,2.8,8.2,3.5.5.1,1,.2,1.5.4.9.4,1.1,1.1.5,1.9-.2.3-.6.6-.9.8-1.9,1.6-3.8,3.1-5.8,4.7-1.4,1.1-2.2,1.1-3.6.2-3.1-1.9-5.3-4.4-6.4-7.9-.8-2.5-1.4-5-1.6-7.6,0-.3,0-.6,0-.9-.2-1.1-.5-1.4-1.6-1.5-1-.1-2-.1-2.9,0-1.3.1-1.9.6-1.9,1.9,0,1.7,0,3.3,0,5,0,2.6.2,4.9.2,7.5v.7c-.2,1.2-.8,1.8-2,1.8h-7.1c-.3,0-.7-.1-1-.1-.9-.2-1.5-.7-1.6-1.6s-.2-1.7-.3-2.6c-.2-4.8-.3-9.8-.3-15.3h0ZM87.9,346.2c0,.6,0,1.2,0,1.7.2,1.1.7,1.5,1.8,1.5,2.1-.1,4.3-.4,6.3-1.2,1.2-.5,2.2-1.3,2.7-2.6.7-1.8.9-3.7.5-5.6-.2-1-.7-2-1.5-2.7-2.3-2.1-5.1-2.8-8.2-2.7-.8,0-1.2.5-1.4,1.3,0,.4,0,.9,0,1.4-.1,1.5-.1,7.4-.2,8.9h0Z"/>
      <path class="st0" d="M116.6,350.4v-15.1c0-.6,0-1.3,0-1.9.2-1.1.7-1.6,1.8-1.7h7.2c1.9,0,2.5.8,2.5,2.7,0,7.3-.1,14.5-.1,21.8s.1,6.5.2,9.7c0,.7-.1,1.4-.2,2.1-.2.9-.7,1.5-1.7,1.5-2.6.1-5.2.2-7.8.1-1.1,0-1.6-.6-1.9-1.7,0-.6,0-1.1-.2-1.7,0-4.8,0-9.6-.2-14.4.3-.5.3-1,.3-1.4h0Z"/>
      <path class="st0" d="M146.2,349.5c0,.6-.2,1.3.5,1.5.6.2.9-.3,1.3-.6,1.8-1.6,3.7-3.2,5.5-4.7.3-.3.7-.6,1.1-.8.6-.3,1.2-.1,1.4.5.1.4.2.8.2,1.2-.1,1.8-.1,3.7-.2,5.5,0,.3-.1.6-.1.9-.3,1.1-.7,1.5-1.8,1.5-1.4.1-2.9,0-4.3,0s-1.5,0-2.2.1-1.1.6-1.2,1.3c-.1.5-.1.9-.1,1.4,0,3.3.1,6.6.2,9.9,0,1.6-.4,2.2-2,2.5-.3.1-.7.1-1,.1h-6.2c-1.6,0-2.1-.6-2.2-2.1-.1-1.8-.2-3.7-.2-5.5-.1-3.4-.2-6.8-.3-10.2v-2.8c.1-4.4.1-8.9.2-13.3,0-.7,0-1.4.1-2.1.2-1.4.8-1.9,2.1-2.1h.3c4.3.1,8.5.1,12.8.2,1.3,0,2.5.1,3.8.1,2.9.1,5.8.1,8.7.1h.7c1.5.2,2.1.8,2.4,2.3.1.4.1.8.1,1.2v9c0,.3,0,.7-.1,1-.2,1.1-1.1,1.3-1.9.6-.3-.3-.6-.7-.9-1.1-1.4-2.3-3.2-4.2-5.2-6-2.4-2.2-5.3-3.5-8.4-4.2-2.4-.5-2.9,0-2.9,2.4-.1,2.1-.3,10.1-.2,12.2h0Z"/>
      <path class="st0" d="M182.5,353.2v-12.8c0-.6,0-1.3-.1-1.9-.1-.7-.7-.9-1.3-.5-.3.2-.7.5-1,.7-2.9,2.4-5.5,4.9-7.7,7.9-.4.5-.9,1.1-1.4,1.5-.6.6-1.4.3-1.6-.5s-.1-.9-.1-1.4c-.1-3.6-.2-7.1-.3-10.7v-1c.2-1.5.8-2.2,2.3-2.3,2.2-.2,4.5-.4,6.7-.4h25.9c.8,0,1.6,0,2.4.1,1.3.2,1.8.7,2.1,2,.1.4.1.9.1,1.4v10.2c0,.7-.1,1.4-.3,2.1-.2,1-1,1.2-1.9.6-.4-.3-.7-.6-1-1-2-2.2-3.9-4.4-6-6.5-1.1-1.2-2.4-2.2-3.6-3.3-.3-.3-.7-.4-1-.6-.4-.1-.7.1-.8.4-.1.4-.2.8-.2,1.2v23.1c0,1.3.1,2.5.1,3.8s0,1.8-.1,2.8c-.2,1-.9,1.5-1.9,1.5-2.7,0-4.8.2-7.5-.1-.9-.1-1.5-.7-1.6-1.6-.1-.7-.2-1.4-.2-2.1,0-4.1,0-8.3,0-12.6h0Z"/>
    </g>
    <g>
      <path class="st0" d="M283.9,365.7c0,1.1-.1,2.2-.2,3.3-.2,1.4-.6,1.8-2,2-1.5.2-3.1.3-4.7.3h-6.8c-1.8,0-3.1-.7-3.9-2.3-1.7-3.7-3.5-7.4-5.2-11.1-.8-1.7-1.4-3.4-2.1-5.1-.2-.5-.4-1.1-1-1.1-.7-.1-.9.6-1.2,1.1-2.5,5-5.1,10-7.6,15-.4.7-.7,1.5-1.2,2.1-.4.5-.9.9-1.5,1.1-1.7.6-3.2-.2-3.4-2-.2-1.3-.2-2.6-.2-4-.2-3.6-.4-7.3-.5-10.9v-2.4c0-4-.1-8.1-.2-12.1,0-1.2-.1-2.4-.2-3.6,0-.5,0-1,.2-1.4.2-.5.5-1,.9-1.2,1.2-.7,2.5-.6,3.9-.2.5.2.8.6.9,1.2.1.6.2,1.3.2,1.9.1,4.8.1,9.7.2,14.5,0,1.3.1,2.5.2,3.8,0,.2.1.7.4.7.3.1.6-.3.8-.5s.3-.5.4-.7c2-3.9,4-7.8,5.5-12,.9-2.6,2-5.2,3.1-7.7.3-.6.6-1.2,1.1-1.8.6-.7,1.4-.8,2.1-.1.4.4.8.9,1,1.4.8,1.7,1.7,3.4,2.4,5.2,2.1,5.2,4,10.4,6.1,15.7.2.6.5,1.2.9,1.7.2.2.5.1.5-.1.1-.5.2-1,.2-1.5-.1-3.1-.1-6.1-.2-9.2-.1-3.5-.3-7-.4-10.5v-1c.1-1.1.6-1.6,1.6-1.7,2.2-.1,4.5-.2,6.7-.2s2.1.7,2.3,2.3c.1.5.1.9.1,1.4.1,4.1.3,8.2.4,12.3.1,3.1.2,6.2.3,9.3.3.2.2,5.9.1,8.1h0Z"/>
      <path class="st0" d="M315.3,371.1h-2.4c-1.1,0-1.9-.5-2.3-1.5-.2-.5-.5-1.1-.7-1.6-.8-2.1-1.5-4.2-2.3-6.3-.2-.5-.4-1.1-.6-1.6-.8-1.8-1.3-2.1-3.3-2-1.8.1-3.7.2-5.5.2s-2.4.6-2.9,2c-.9,2.3-2.2,5.7-3.1,8-.2.6-.5,1.2-.8,1.7-.7,1.1-2.1,1.6-3.4,1.3-.9-.2-1.4-.8-1.3-1.7.1-.8.4-1.6.7-2.3,2.2-5.5,4.9-12,6.9-17.5,1.6-4.4,3.4-8.7,5.5-12.9.4-.9.8-1.8,1.2-2.7.5-1.1,1.3-1.7,2.5-1.8,1.6-.2,3.1-.3,4.7-.4,1.4-.1,2.5.5,3,1.8.2.5.4,1,.5,1.5.9,4.5,2.7,8.7,3.9,13.1.6,2.1,1.3,4.2,2,6.3.5,1.6,1.2,3.2,1.8,4.9.9,2.9,1.9,5.8,2.7,8.8.4,1.5-.2,2.3-1.8,2.5-1.7,0-3.3.1-5,.2h0ZM300.9,353.3c.7,0,1.3,0,1.8-.1,1.3-.2,1.7-.7,1.3-2-.4-1.5-.9-3.1-1.4-4.6-.1-.4-.3-.7-.5-1.1s-.7-.4-1,0c-.1.2-.2.4-.3.6-.7,1.8-1.4,3.5-2,5.3-.1.2-.1.4-.2.7-.1.7.2,1.1.9,1.2h1.4Z"/>
      <path class="st0" d="M363.6,351.3v-10.5c0-2.1.1-4.3.2-6.4.1-1.9.7-2.6,2.6-2.6s3.5.1,5.2.1c3.3.1,6.7.3,10,.3,3.2.1,6.3.1,9.5,0,2.4,0,3.4.7,3.5,3.3.1,3.3.1,6.5.1,9.8s-.1,1.5-.9,1.8-1.3-.3-1.7-.9c-.7-.9-1.2-1.9-2-2.7-1.6-1.7-3.3-3.4-5.1-4.8-2.3-1.8-5.1-2.8-7.9-3.6-1.2-.3-1.7.1-1.9,1.3-.1.4,0,.8,0,1.2v11.7c0,.5,0,1,.1,1.4.1.8.6,1,1.3.5.5-.3.9-.7,1.3-1.1,1.4-1.2,2.7-2.4,4-3.6.3-.3.7-.6,1.1-.9,1.3-.9,2.1-.5,2.2,1.1v3c0,1-.1,2-.2,3-.1,1.8-.7,2.4-2.5,2.4s-3,0-4.5-.1h-.9c-1.1.1-1.6.6-1.7,1.6-.1.3-.1.7-.1,1.1v8c.1,1.6.4,1.9,1.9,1.8,1.9-.1,3.8-.6,5.4-1.6,3.6-2.2,6.6-4.9,8.7-8.7.4-.7.8-1.3,1.2-2,.2-.3.5-.7.7-1,.5-.5,1.2-.4,1.5.3.1.4.2.8.2,1.2.1,3.7.3,7.3.4,11,0,.6,0,1.2-.1,1.8-.2,1-.8,1.7-1.8,2-.7.2-1.5.2-2.2.2h-9.9c-4.6,0-9.2.1-13.8.1s-1.2,0-1.7-.1c-1.1-.1-1.7-.6-1.9-1.8-.1-.5-.1-1.1-.1-1.6-.1-5-.2-10.5-.2-16h0Z"/>
      <path class="st0" d="M333.1,368.6c-2.1-4-3.9-8.1-5.8-12.2-3-6.6-6-13.1-9-19.7-.2-.4-.4-.8-.6-1.3-.5-1.3-.3-2.2.8-3.1.2-.1.4-.3.6-.4,2.1-1.3,3.2-1,4.3,1.1,2.1,4.3,4.1,8.6,6,12.9,2.2,4.8,4.4,9.6,6.5,14.4.2.4.3.7.6,1.1.4.6.9.6,1.3-.1.1-.2.2-.4.3-.6,1.3-3.3,2.6-6.7,3.9-10,.9-2.4,1.8-4.8,2.7-7.1.8-2.2,1.6-4.5,2.4-6.7.4-1,.8-2.1,1.2-3.1.6-1.3,1.6-1.8,3-1.8,2.9,0,4.9-.2,7.3.2.3,0,.7.2,1,.3.8.4,1.2,1.1,1,2-.1.6-.5,2-.8,2.6-1.7,4.7-3.2,9.5-5.3,14.1-.6,1.3-1,2.7-1.6,4-1.9,4.6-3.7,9.1-5.6,13.6-.2.4-.3.7-.5,1.1-.5.9-1.2,1.4-2.2,1.4h-2.3s-3.7-.2-5.5-.2c-1.8,0-2.9-1-3.7-2.5"/>
      <path class="st0" d="M232.5,371.1h-2.4c-1.1,0-1.9-.5-2.3-1.5-.2-.5-.5-1.1-.7-1.6-.8-2.1-1.5-4.2-2.3-6.3-.2-.5-.4-1.1-.6-1.6-.8-1.8-1.3-2.1-3.3-2-1.8.1-3.7.2-5.5.2s-2.4.6-2.9,2c-.9,2.3-2.2,5.7-3.1,8-.2.6-.5,1.2-.8,1.7-.7,1.1-2.1,1.6-3.4,1.3-.9-.2-1.4-.8-1.3-1.7.1-.8.4-1.6.7-2.3,2.2-5.5,4.9-12,6.9-17.5,1.6-4.4,3.4-8.7,5.5-12.9.4-.9.8-1.8,1.2-2.7.5-1.1,1.3-1.7,2.5-1.8,1.6-.2,3.1-.3,4.7-.4,1.4-.1,2.5.5,3,1.8.2.5.4,1,.5,1.5.9,4.5,2.7,8.7,3.9,13.1.6,2.1,1.3,4.2,2,6.3.5,1.6,1.2,3.2,1.8,4.9.9,2.9,1.9,5.8,2.7,8.8.4,1.5-.2,2.3-1.8,2.5-1.7,0-3.2.1-5,.2h0ZM218.2,353.3c.7,0,1.3,0,1.8-.1,1.3-.2,1.7-.7,1.3-2-.4-1.5-.9-3.1-1.4-4.6-.1-.4-.3-.7-.5-1.1s-.7-.4-1,0l-.3.6c-.7,1.8-1.4,3.5-2,5.3-.1.2-.1.4-.2.7-.1.7.2,1.1.9,1.2h1.4Z"/>
    </g>
  </g>
</svg>