<?xml version="1.0" encoding="utf-8"?>
<!-- Generator: Adobe Illustrator 27.6.1, SVG Export Plug-In . SVG Version: 6.00 Build 0)  -->
<svg version="1.1" id="Travel_Untamed" xmlns="http://www.w3.org/2000/svg" xmlns:xlink="http://www.w3.org/1999/xlink" x="0px"
	 y="0px" viewBox="0 0 432 371.3" style="enable-background:new 0 0 432 371.3;" xml:space="preserve">
<style type="text/css">
	.st0{fill:#FFFFFF;}
</style>
<g>
	<g>
		<path d="M425.2,630.4c-1.8,8.6-10.5,37.4-47.1,42.1c-31.5,4.1-56.4-14-60.7-17.3c-0.4-0.3-1-0.4-1.5-0.2l-9.3,3.7
			c-1,0.4-1.3,1.8-0.4,2.5c1.6,1.5,3.1,3.2,4.3,5.2c10,16.8,13.2,39.7,1.7,65.7c-0.3,0.6,0.2,1.4,0.9,1.3c4.8-0.4,19.4-1.7,25.6-2.2
			c1.3-0.1,2.1-1.5,1.6-2.7c-0.3-0.7-0.7-1.5-1-2.2c-0.9-2.2-1.8-4.5-2.5-6.9c-0.3-0.9-1.2-1.3-2-0.9c-2.1,0.9-6.2,2.7-11.4,4.3
			c-1.2,0.4-2.3-0.7-1.9-1.9c1.5-5.6,2.5-11.1,2.8-16.5c0.1-0.7,0.6-1.3,1.4-1.4l21-1.8c0.8-0.1,1.5,0.5,1.6,1.4
			c0.7,8.2,6.9,47.3,58.4,43.7c0.9-0.1,1.6,0.6,1.6,1.5v24.1c0,0.9-0.8,1.6-1.7,1.5c-2.2-0.3-6.2-1-11.3-2.4
			c-9.1-2.5-21.5-7.1-32.9-15.5c-1.7-1.3-3.5-2.7-5.2-4.2c-1.3-1.1-3.2,0.4-2.3,1.8c6.6,11.4,19.6,22.9,45.2,22.9
			c2.1,0,4.3-0.1,6.6-0.2c0.9-0.1,1.6,0.6,1.6,1.5v24.1c0,0.9-0.8,1.6-1.7,1.5c-9.6-1.4-56.6-10.5-69.8-53.9
			c-0.2-0.8-1.1-1.2-1.9-0.9c-4.6,2.1-19.2,8.2-34.6,8.2c-16.7,0-34.1-7.2-40.3-34.6c-0.4-1.7-2.9-1.3-2.7,0.4
			c0.2,2,0.5,4.2,0.9,6.4c0.2,1.2-1,2.1-2,1.6c-2.6-1.2-7.1-2.6-14-2.6c-7.7,0-18.3,1.7-32.4,7.5c-23,9.4-56,21.4-92.6,21.4
			c-20.1,0-41.3-3.6-62.5-13.3c-0.6-0.3-1.3-0.1-1.7,0.3L29,769.1c-0.3,0.3-0.4,0.6-0.4,1v25.6c0,0.8-0.7,1.5-1.5,1.5l-32.3-0.3
			c-1.2,0-1.9-1.4-1.2-2.4l59.8-80.3c0.5-0.7,1.5-0.8,2.1-0.3c2.8,2.2,10.7,7.5,23.5,10.6c0.6,0.2,1.2-0.1,1.6-0.6l9.6-12.9
			c0.5-0.7,1.5-0.8,2.1-0.3c1.1,0.9,3.1,2.3,5.9,3.8c1.2,0.7,2.6-0.5,2.1-1.8c-5.7-14-11.1-35.9,1.8-50.9
			c14.5-16.9,18.1-31,18.9-37.8c0.2-1.3-1.3-2.1-2.2-1.3c-4.1,3.6-10.5,4.4-17.1,4.4c-0.6,0-1.2,0-1.9,0h-0.3
			c-7.7,0-14,4.7-15.4,5.9c-0.2,0.1-0.3,0.3-0.4,0.5l-4.2,9.1c-0.2,0.5-0.7,0.8-1.2,0.9l-14.2,1.2c-0.5,0.1-1.1-0.2-1.4-0.6
			l-10.5-15.2c-0.4-0.5-0.4-1.3,0-1.8l25.3-33c0.6-0.8,1.9-0.8,2.5,0.1l0.9,1.5c0.3,0.5,0.8,0.7,1.3,0.7h6c0.4,0,0.8-0.2,1-0.4
			l5.2-4.9c0.7-0.6,1.8-0.5,2.3,0.3l2.7,4.3c0.3,0.5,0.8,0.7,1.3,0.7h9.1c0.3,0,0.6-0.1,0.9-0.3l12.6-9.7c0.3-0.2,0.6-0.3,0.9-0.3
			h5.9c1.8,0,3.5-1,4.4-2.5l0.2-0.3H88.9c-1.2,0-1.9-1.4-1.2-2.4l1.7-2.3c0.2-0.3,0.3-0.6,0.3-0.9v-17.4c0-1.3,1.5-2,2.5-1.1
			l7.8,7.1c1,0.9,2.5,0.2,2.5-1.1v-11.3c0-1.3,1.5-2,2.5-1.1l8.6,7.8c0.3,0.3,0.8,0.4,1.2,0.4c1.1-0.1,3.6-0.4,7.1-0.4
			c17.9,0,60.9,7,65.6,73.6c0.1,0.6-0.3,1.3-0.8,1.6c-5.5,3.1-11.3,5.2-16.4,6.7c-0.1,0-0.1,0-0.2,0.1c-0.2,0.1-0.3,0.3-0.3,0.5
			c0,0.3,0.3,0.5,0.6,0.5v0c10.2-1.8,17.1-3.9,17.1-3.9s47.5-11.4,57.2-81.5c0.1-0.5,0.3-0.9,0.8-1.1L387,480
			c1.2-0.6,2.5,0.5,2.2,1.7c-2.2,7.2-5.9,12.6-9.6,16.5c-0.9,1-0.1,2.4,1,2.4c0.2,0,0.4,0,0.6-0.1c1.1-0.5,2.3,0.6,1.9,1.7
			c-3.3,9.4-8.2,15.4-12,18.9c-0.7,0.6,0,1.7,0.9,1.3l2.7-1.2c1.4-0.6,2.8,0.7,2.3,2.1c-3.6,10.2-8.8,16.1-12.4,19.6
			c-0.6,0.5,0.1,1.5,0.8,1.1l3.4-1.8c1.2-0.7,2.6,0.5,2.1,1.8c-3.9,11-9.1,16.7-12.8,20.1c-0.5,0.4,0.1,1.2,0.6,0.9l4.7-2.5
			c1.1-0.6,2.2,0.5,1.9,1.6c-4.2,13.3-13.2,22.1-23.4,26.3l-51.4,19.5c-0.4,0.1-0.7,0.5-0.9,0.8c-2,5-18.9,41.3-56.9,63.9
			c-0.6,0.4-0.1,1.2,0.5,1c6.7-3,17-8.5,27.1-17.2c5.3-4.6,12.1-7.1,19-7.1c1.8,0,3.6,0.2,5.3,0.5c2.9,0.5,6,1.3,9,2.4
			c0.5,0.2,1.2,0,1.6-0.4l20.7-21.6c0.4-0.5,1.1-0.6,1.7-0.4c6.6,2.9,47.9,18.7,105.6-3.1C424.3,628.4,425.4,629.3,425.2,630.4z"/>
		<g>
			<path d="M73.2,757.9l-7.3,7.9c-0.3,0.4-0.5,0.8-0.5,1.3v28.5c0,1.1-0.9,2-2,1.9l-29.9-0.3l-1.3,0c-1.6,0-2.5-1.8-1.6-3l2.8-4.1
				L59.8,752c0.5-0.7,1.5-1,2.3-0.7c1,0.4,2.1,0.8,3.1,1.1c2.3,0.8,4.7,1.6,7.1,2.3C73.6,755.1,74.1,756.9,73.2,757.9z"/>
		</g>
	</g>
	<path d="M221,558c-11.6,4.6-15.8,8.8-20.4,20.4c-0.2,0.6-1,0.6-1.2,0c-4.6-11.6-8.8-15.8-20.4-20.4c-0.6-0.2-0.6-1,0-1.2
		c11.6-4.6,15.8-8.8,20.4-20.4c0.2-0.6,1-0.6,1.2,0c4.6,11.6,8.8,15.8,20.4,20.4C221.6,557,221.6,557.8,221,558z"/>
	<path d="M72,679c-10.1,4-13.7,7.7-17.8,17.8c-0.2,0.6-1,0.6-1.2,0c-4-10.1-7.7-13.7-17.8-17.8c-0.6-0.2-0.6-1,0-1.2
		c10.1-4,13.7-7.7,17.8-17.8c0.2-0.6,1-0.6,1.2,0c4,10.1,7.7,13.7,17.8,17.8C72.5,678,72.5,678.7,72,679z"/>
	<path d="M32.2,678.9c-5.1,2.1-7.1,4.2-9.2,9.2c-0.2,0.5-1,0.5-1.2,0c-2.1-5.1-4.2-7.1-9.2-9.2c-0.5-0.2-0.5-1,0-1.2
		c5.1-2.1,7.1-4.2,9.2-9.2c0.2-0.5,1-0.5,1.2,0c2.1,5.1,4.2,7.1,9.2,9.2C32.7,678,32.7,678.7,32.2,678.9z"/>
	<path d="M423,726.2c-8,3.2-11,6.2-14.2,14.2c-0.2,0.5-1,0.5-1.2,0c-3.2-8-6.2-11-14.2-14.2c-0.5-0.2-0.5-1,0-1.2
		c8-3.2,11-6.2,14.2-14.2c0.2-0.5,1-0.5,1.2,0c3.2,8,6.2,11,14.2,14.2C423.6,725.2,423.6,726,423,726.2z"/>
</g>
<g>
	<path d="M431.9,150.6c-1.8,8.6-10.5,37.4-47.1,42.1c-31.5,4.1-56.4-14-60.7-17.3c-0.4-0.3-1-0.4-1.5-0.2l-9.3,3.7
		c-1,0.4-1.3,1.8-0.4,2.5c1.6,1.5,3.1,3.2,4.3,5.2c10,16.8,13.2,39.7,1.7,65.7c-0.3,0.6,0.2,1.4,0.9,1.3c4.8-0.4,19.4-1.7,25.6-2.2
		c1.3-0.1,2.1-1.5,1.6-2.7c-0.3-0.7-0.7-1.5-1-2.2c-0.9-2.2-1.8-4.5-2.5-6.9c-0.3-0.9-1.2-1.3-2-0.9c-2.1,0.9-6.2,2.7-11.4,4.3
		c-1.2,0.4-2.3-0.7-1.9-1.9c1.5-5.6,2.5-11.1,2.8-16.5c0.1-0.7,0.6-1.3,1.4-1.4l21-1.8c0.8-0.1,1.5,0.5,1.6,1.4
		c0.7,8.2,6.9,47.3,58.4,43.7c0.9-0.1,1.6,0.6,1.6,1.5V292c0,0.9-0.8,1.6-1.7,1.5c-2.2-0.3-6.2-1-11.3-2.4
		c-9.1-2.5-21.5-7.1-32.9-15.5c-1.7-1.3-3.5-2.7-5.2-4.2c-1.3-1.1-3.2,0.4-2.3,1.8c6.6,11.4,19.6,22.9,45.2,22.9
		c2.1,0,4.3-0.1,6.6-0.2c0.9-0.1,1.6,0.6,1.6,1.5v24.1c0,0.9-0.8,1.6-1.7,1.5c-9.6-1.4-56.6-10.5-69.8-53.9
		c-0.2-0.8-1.1-1.2-1.9-0.9c-4.6,2.1-19.2,8.2-34.6,8.2c-16.7,0-34.1-7.2-40.3-34.6c-0.4-1.7-2.9-1.3-2.7,0.4c0.2,2,0.5,4.2,0.9,6.4
		c0.2,1.2-1,2.1-2,1.6c-2.6-1.2-7.1-2.6-14-2.6c-7.7,0-18.3,1.7-32.4,7.5c-23,9.4-56,21.4-92.6,21.4c-20.1,0-41.3-3.6-62.5-13.3
		c-0.6-0.3-1.3-0.1-1.7,0.3l-23.8,25.9c-0.3,0.3-0.4,0.6-0.4,1v25.6c0,0.8-0.7,1.5-1.5,1.5l-32.3-0.3c-1.2,0-1.9-1.4-1.2-2.4
		l59.8-80.3c0.5-0.7,1.5-0.8,2.1-0.3c2.8,2.2,10.7,7.5,23.5,10.6c0.6,0.2,1.2-0.1,1.6-0.6l9.6-12.9c0.5-0.7,1.5-0.8,2.1-0.3
		c1.1,0.9,3.1,2.3,5.9,3.8c1.2,0.7,2.6-0.5,2.1-1.8c-5.7-14-11.1-35.9,1.8-50.9c14.5-16.9,18.1-31,18.9-37.8
		c0.2-1.3-1.3-2.1-2.2-1.3c-4.1,3.6-10.5,4.4-17.1,4.4c-0.6,0-1.2,0-1.9,0h-0.3c-7.7,0-14,4.7-15.4,5.9c-0.2,0.1-0.3,0.3-0.4,0.5
		l-4.2,9.1c-0.2,0.5-0.7,0.8-1.2,0.9l-14.2,1.2c-0.5,0.1-1.1-0.2-1.4-0.6L59.1,149c-0.4-0.5-0.4-1.3,0-1.8l25.3-33
		c0.6-0.8,1.9-0.8,2.5,0.1l0.9,1.5c0.3,0.5,0.8,0.7,1.3,0.7h6c0.4,0,0.8-0.2,1-0.4l5.2-4.9c0.7-0.6,1.8-0.5,2.3,0.3l2.7,4.3
		c0.3,0.5,0.8,0.7,1.3,0.7h9.1c0.3,0,0.6-0.1,0.9-0.3l12.6-9.7c0.3-0.2,0.6-0.3,0.9-0.3h5.9c1.8,0,3.5-1,4.4-2.5l0.2-0.3H95.7
		c-1.2,0-1.9-1.4-1.2-2.4l1.7-2.3c0.2-0.3,0.3-0.6,0.3-0.9V80.5c0-1.3,1.5-2,2.5-1.1l7.8,7.1c1,0.9,2.5,0.2,2.5-1.1V74.1
		c0-1.3,1.5-2,2.5-1.1l8.6,7.8c0.3,0.3,0.8,0.4,1.2,0.4c1.1-0.1,3.6-0.4,7.1-0.4c17.9,0,60.9,7,65.6,73.6c0.1,0.6-0.3,1.3-0.8,1.6
		c-5.5,3.1-11.3,5.2-16.4,6.7c-0.1,0-0.1,0-0.2,0.1c-0.2,0.1-0.3,0.3-0.3,0.5c0,0.3,0.3,0.5,0.6,0.5v0c10.2-1.8,17.1-3.9,17.1-3.9
		s47.5-11.4,57.2-81.5c0.1-0.5,0.3-0.9,0.8-1.1L393.7,0.2c1.2-0.6,2.5,0.5,2.2,1.7c-2.2,7.2-5.9,12.6-9.6,16.5c-0.9,1-0.1,2.4,1,2.4
		c0.2,0,0.4,0,0.6-0.1c1.1-0.5,2.3,0.6,1.9,1.7c-3.3,9.4-8.2,15.4-12,18.9c-0.7,0.6,0,1.7,0.9,1.3l2.7-1.2c1.4-0.6,2.8,0.7,2.3,2.1
		c-3.6,10.2-8.8,16.1-12.4,19.6c-0.6,0.5,0.1,1.5,0.8,1.1l3.4-1.8c1.2-0.7,2.6,0.5,2.1,1.8c-3.9,11-9.1,16.7-12.8,20.1
		c-0.5,0.4,0.1,1.2,0.6,0.9l4.7-2.5c1.1-0.6,2.2,0.5,1.9,1.6c-4.2,13.3-13.2,22.1-23.4,26.3l-51.4,19.5c-0.4,0.1-0.7,0.5-0.9,0.8
		c-2,5-18.9,41.3-56.9,63.9c-0.6,0.4-0.1,1.2,0.5,1c6.7-3,17-8.5,27.1-17.2c5.3-4.6,12.1-7.1,19-7.1c1.8,0,3.6,0.2,5.3,0.5
		c2.9,0.5,6,1.3,9,2.4c0.5,0.2,1.2,0,1.6-0.4l20.7-21.6c0.4-0.5,1.1-0.6,1.7-0.4c6.6,2.9,47.9,18.7,105.6-3.1
		C431.1,148.6,432.2,149.5,431.9,150.6z"/>
	<g>
		<path d="M79.9,278.1l-7.3,7.9c-0.3,0.4-0.5,0.8-0.5,1.3v28.5c0,1.1-0.9,2-2,1.9l-29.9-0.3l-1.3,0c-1.6,0-2.5-1.8-1.6-3l2.8-4.1
			l26.3-38.1c0.5-0.7,1.5-1,2.3-0.7c1,0.4,2.1,0.8,3.1,1.1c2.3,0.8,4.7,1.6,7.1,2.3C80.4,275.4,80.9,277.1,79.9,278.1z"/>
	</g>
</g>
<path d="M227.8,78.2c-11.6,4.6-15.8,8.8-20.4,20.4c-0.2,0.6-1,0.6-1.2,0c-4.6-11.6-8.8-15.8-20.4-20.4c-0.6-0.2-0.6-1,0-1.2
	c11.6-4.6,15.8-8.8,20.4-20.4c0.2-0.6,1-0.6,1.2,0c4.6,11.6,8.8,15.8,20.4,20.4C228.4,77.2,228.4,78,227.8,78.2z"/>
<path d="M78.7,199.2c-10.1,4-13.7,7.7-17.8,17.8c-0.2,0.6-1,0.6-1.2,0c-4-10.1-7.7-13.7-17.8-17.8c-0.6-0.2-0.6-1,0-1.2
	c10.1-4,13.7-7.7,17.8-17.8c0.2-0.6,1-0.6,1.2,0c4,10.1,7.7,13.7,17.8,17.8C79.3,198.2,79.3,199,78.7,199.2z"/>
<path d="M38.9,199.2c-5.1,2.1-7.1,4.2-9.2,9.2c-0.2,0.5-1,0.5-1.2,0c-2.1-5.1-4.2-7.1-9.2-9.2c-0.5-0.2-0.5-1,0-1.2
	c5.1-2.1,7.1-4.2,9.2-9.2c0.2-0.5,1-0.5,1.2,0c2.1,5.1,4.2,7.1,9.2,9.2C39.4,198.2,39.4,198.9,38.9,199.2z"/>
<path d="M429.8,246.4c-8,3.2-11,6.2-14.2,14.2c-0.2,0.5-1,0.5-1.2,0c-3.2-8-6.2-11-14.2-14.2c-0.5-0.2-0.5-1,0-1.2
	c8-3.2,11-6.2,14.2-14.2c0.2-0.5,1-0.5,1.2,0c3.2,8,6.2,11,14.2,14.2C430.3,245.5,430.3,246.2,429.8,246.4z"/>
<g>
	<path d="M338.8,937.7c-8.7,3.5-12,6.8-15.6,15.6c-0.2,0.6-1.1,0.6-1.3,0c-3.5-8.7-6.8-12-15.6-15.6c-0.6-0.2-0.6-1.1,0-1.3
		c8.7-3.5,12-6.8,15.6-15.6c0.2-0.6,1.1-0.6,1.3,0c3.5,8.7,6.8,12,15.6,15.6C339.4,936.6,339.4,937.5,338.8,937.7"/>
	<path d="M37.9,963.4c0-7.4,0-14.8,0-22.2c0-4.4,0.7-5.1,5.1-5c7,0,13.9,0,20.9,0.2c5.1,0.2,10.1,1.4,15,2.8c3.7,1,6.4,3.3,8.5,6.4
		c2.4,3.5,3.7,7.4,3.7,11.7c0,3.5,0.1,7.1,0,10.6c-0.3,6.3-2.3,12.1-5.9,17.3c-1.1,1.6-2.6,2.9-4.2,3.9c-5.1,3.3-10.7,5.1-16.7,5.3
		c-6.9,0.2-13.7,0.2-20.6,0.2c-0.6,0-1.2-0.1-1.8-0.2c-2.5-0.3-3.3-1.2-3.6-3.8c-0.1-1.3-0.3-2.6-0.3-3.9
		c-0.1-5.3-0.1-10.6-0.1-15.8C37.9,968.3,37.9,965.8,37.9,963.4L37.9,963.4L37.9,963.4z M55.9,963.8c0,5.9,0,11.8,0,17.7
		c0,1.5,0.1,3,0.3,4.5c0.1,0.9,0,1.9,0.9,2.3c1.1,0.5,1.8-0.4,2.5-1c5.6-4.3,9.7-9.7,12.6-16c0.9-1.9,1.7-4,1.9-6
		c0.7-6.6-0.2-13-3.3-19c-0.8-1.5-1.9-2.7-3.4-3.6c-2.7-1.6-5.8-2.2-8.8-2.4c-1.5-0.1-2.3,0.6-2.6,2.1c-0.2,0.9-0.1,1.8-0.1,2.6
		C55.9,951.3,55.9,957.5,55.9,963.8z"/>
	<path d="M98.1,963.7c0.1-7.3,0.2-15.2,0.3-23.2c0-0.3,0-0.5,0-0.8c0.2-2.7,1-3.6,3.8-3.6c3.1-0.1,6.2,0,9.2,0
		c4.3,0,8.6,0.2,12.9,0.2c4.2,0,8.3,0.4,12.3,1c2,0.3,4,0.9,5.7,1.9c1.8,1,3.2,2.4,3.9,4.5c0.6,1.9,1.2,3.9,1.7,5.8
		c1.9,6.7-2.8,17.1-12.5,18.7c-0.8,0.1-1.6,0.2-2.3,0.4c-0.7,0.2-1,0.7-0.8,1.4c0.2,0.6,0.4,1.2,0.7,1.7c1.3,2.6,3.3,4.6,5.7,6.1
		c3.9,2.5,8.1,4.2,12.6,5.4c0.8,0.2,1.6,0.3,2.3,0.6c1.4,0.6,1.7,1.7,0.7,2.9c-0.4,0.5-0.8,0.9-1.3,1.3c-2.9,2.4-5.9,4.8-8.8,7.1
		c-2.1,1.6-3.3,1.7-5.5,0.3c-4.7-2.9-8.1-6.7-9.8-12c-1.2-3.8-2.2-7.6-2.5-11.6c0-0.4-0.1-0.9-0.1-1.3c-0.3-1.6-0.8-2.1-2.4-2.2
		c-1.5-0.1-3-0.1-4.5,0c-2,0.1-2.9,0.9-3,3c-0.1,2.5,0,5.1,0,7.7c0,4,0.3,7.5,0.4,11.5c0,0.4,0,0.7-0.1,1.1c-0.3,1.8-1.2,2.7-3,2.7
		c-3.5,0-7.3,0.1-10.8,0c-0.5,0-1.1-0.1-1.6-0.2c-1.3-0.3-2.2-1.1-2.4-2.4c-0.2-1.3-0.4-2.6-0.4-3.9
		C98.3,979.8,98.2,972.2,98.1,963.7L98.1,963.7z M116,958.3c0,0.9,0,1.8,0.2,2.6c0.3,1.6,1.1,2.4,2.7,2.3c3.3-0.2,6.5-0.6,9.6-1.8
		c1.9-0.7,3.4-2,4.1-3.9c1-2.8,1.4-5.6,0.7-8.6c-0.4-1.6-1.1-3-2.3-4.1c-3.5-3.2-7.8-4.2-12.5-4.1c-1.3,0-1.9,0.7-2.1,2
		c-0.1,0.7-0.2,1.4-0.2,2.1C116.2,947.1,116.1,956.1,116,958.3L116,958.3z"/>
	<path d="M159.7,964.7c0-7.7,0-15.3,0-23c0-1,0-1.9,0.1-2.9c0.3-1.7,1.1-2.4,2.8-2.6c0.3,0,0.5,0,0.8,0c3.4,0,6.9-0.1,10.3,0
		c2.9,0.1,3.9,1.2,3.9,4.1c-0.1,11.1-0.1,22.2-0.1,33.3c0,4.9,0.2,9.8,0.3,14.8c0,1-0.1,2.1-0.3,3.1c-0.2,1.4-1.1,2.2-2.5,2.3
		c-4,0.1-7.9,0.2-11.9,0.2c-1.7,0-2.5-0.9-2.9-2.6c-0.2-0.9-0.2-1.7-0.2-2.6c-0.1-7.3-0.2-14.6-0.2-21.9
		C159.7,966.1,159.7,965.4,159.7,964.7L159.7,964.7z"/>
	<path d="M204.9,963.4c0,0.8-0.2,1.9,0.8,2.3c0.9,0.3,1.4-0.5,2-1c2.8-2.4,5.6-4.8,8.4-7.2c0.5-0.5,1.1-0.9,1.7-1.2
		c0.9-0.5,1.8-0.1,2.2,0.8c0.2,0.6,0.3,1.2,0.3,1.8c-0.1,2.8-0.2,5.6-0.3,8.4c0,0.4-0.1,0.9-0.2,1.3c-0.4,1.6-1.1,2.3-2.7,2.3
		c-2.2,0.1-4.4-0.1-6.6-0.1c-1.1,0-2.3,0-3.4,0.2c-1.1,0.2-1.7,0.9-1.8,2c-0.1,0.7-0.1,1.4-0.1,2.1c0.1,5,0.1,10,0.2,15
		c0.1,2.5-0.6,3.4-3,3.8c-0.5,0.1-1,0.2-1.6,0.2c-3.2,0-6.3,0.1-9.5,0c-2.4,0-3.2-0.8-3.3-3.2c-0.2-2.8-0.3-5.6-0.4-8.4
		c-0.2-5.2-0.3-10.4-0.5-15.6c0-1.4,0-2.8,0-4.2c0.1-6.8,0.2-13.6,0.3-20.3c0-1.1,0-2.1,0.1-3.2c0.3-2.1,1.2-2.9,3.2-3.2
		c0.2,0,0.4,0,0.5,0c6.5,0.1,13,0.2,19.5,0.3c1.9,0,3.9,0.2,5.8,0.2c4.4,0.1,8.8,0.1,13.2,0.2c0.4,0,0.7,0,1.1,0.1
		c2.3,0.3,3.2,1.2,3.6,3.5c0.1,0.6,0.2,1.2,0.2,1.8c0,4.6,0,9.2,0,13.7c0,0.5,0,1.1-0.1,1.6c-0.4,1.6-1.7,2-3,0.9
		c-0.5-0.5-1-1-1.3-1.6c-2.1-3.5-4.9-6.4-7.9-9.2c-3.6-3.4-8-5.4-12.8-6.4c-3.6-0.8-4.4,0-4.4,3.7
		C205.1,947.9,204.9,960.2,204.9,963.4L204.9,963.4z"/>
	<path d="M260.3,969c0-6.5,0-13,0-19.5c0-1,0-1.9-0.2-2.9c-0.2-1.1-1-1.4-2-0.8c-0.5,0.3-1,0.7-1.5,1.1c-4.4,3.6-8.4,7.5-11.8,12
		c-0.6,0.8-1.3,1.7-2.1,2.4c-1,0.9-2.1,0.5-2.4-0.8c-0.2-0.7-0.2-1.4-0.2-2.1c-0.2-5.5-0.3-10.9-0.4-16.4c0-0.5,0-1.1,0-1.6
		c0.2-2.3,1.2-3.3,3.5-3.5c3.4-0.3,6.8-0.5,10.3-0.5c13.5-0.1,26,0,39.5,0c1.2,0,2.5,0,3.7,0.2c1.9,0.3,2.8,1.1,3.1,3
		c0.1,0.7,0.2,1.4,0.2,2.1c0,5.2,0,10.4,0,15.6c0,1-0.1,2.1-0.4,3.1c-0.4,1.5-1.6,1.9-2.8,0.9c-0.6-0.4-1-0.9-1.5-1.5
		c-3-3.3-6-6.7-9.1-9.9c-1.7-1.8-3.6-3.3-5.5-5c-0.5-0.4-1-0.7-1.6-0.9c-0.6-0.2-1.1,0.1-1.3,0.6c-0.2,0.6-0.3,1.2-0.3,1.8
		c0,5.7,0,11.4,0,17.1c0,6.1,0,12.1,0,18.2c0,1.9,0.2,3.9,0.2,5.8c0,1.4,0,2.8-0.2,4.2c-0.2,1.6-1.3,2.4-2.9,2.4
		c-4.1,0-7.4,0.4-11.5-0.2c-1.4-0.2-2.2-1.1-2.5-2.4c-0.2-1-0.3-2.1-0.3-3.1C260.3,982,260.3,975.5,260.3,969L260.3,969L260.3,969z"
		/>
</g>
<path d="M140.9,1056.8c0,1.7-0.1,3.3-0.3,5c-0.2,2.1-0.9,2.8-3,3c-2.4,0.3-4.7,0.4-7.1,0.5c-3.4,0.1-6.9,0-10.3,0
	c-2.8,0.1-4.7-1-5.9-3.6c-2.6-5.7-5.3-11.3-7.9-17c-1.2-2.6-2.2-5.2-3.3-7.8c-0.3-0.7-0.6-1.6-1.5-1.7c-1.1-0.1-1.4,0.9-1.8,1.7
	c-3.9,7.6-7.7,15.2-11.6,22.9c-0.6,1.1-1.1,2.2-1.8,3.2c-0.6,0.7-1.4,1.4-2.2,1.7c-2.6,1-4.9-0.4-5.2-3.1c-0.3-2-0.3-4-0.4-6.1
	c-0.3-5.5-0.5-11.1-0.8-16.6c-0.1-1.2,0-2.5-0.1-3.7c-0.1-6.2-0.1-12.3-0.2-18.5c0-1.8-0.2-3.7-0.3-5.5c0-0.7,0-1.5,0.3-2.1
	c0.3-0.7,0.8-1.5,1.4-1.8c1.9-1.1,3.9-1,5.9-0.4c0.8,0.2,1.3,1,1.4,1.8c0.2,0.9,0.3,1.9,0.3,2.9c0.1,7.4,0.1,14.8,0.3,22.2
	c0,1.9,0.2,3.9,0.4,5.8c0,0.4,0.2,1,0.6,1.1c0.5,0.1,0.9-0.4,1.2-0.8c0.3-0.3,0.5-0.7,0.7-1.1c3.1-5.9,6.1-11.9,8.4-18.2
	c1.4-4,3.1-7.9,4.7-11.8c0.4-1,1-1.9,1.6-2.7c0.9-1.1,2.2-1.2,3.3-0.2c0.6,0.6,1.2,1.3,1.6,2.1c1.3,2.6,2.6,5.2,3.7,7.9
	c3.1,7.9,6.2,15.9,9.3,23.9c0.3,0.9,0.8,1.8,1.3,2.6c0.2,0.4,0.7,0.2,0.8-0.2c0.2-0.8,0.3-1.6,0.3-2.3c-0.1-4.7-0.2-9.3-0.4-14
	c-0.2-5.4-0.4-10.7-0.6-16.1c0-0.5,0-1.1,0.1-1.6c0.2-1.6,0.9-2.5,2.5-2.6c3.4-0.2,6.9-0.4,10.3-0.3c2.3,0,3.3,1.1,3.6,3.4
	c0.1,0.7,0.2,1.4,0.2,2.1c0.2,6.2,0.4,12.5,0.6,18.7c0.2,4.8,0.3,9.5,0.5,14.2C141.1,1044.7,140.9,1053.3,140.9,1056.8L140.9,1056.8
	z"/>
<path d="M188.7,1065c-1.1,0-2.4,0-3.7,0c-1.6,0-2.9-0.8-3.5-2.3c-0.4-0.8-0.7-1.6-1-2.4c-1.2-3.2-2.4-6.4-3.5-9.7
	c-0.3-0.8-0.6-1.7-0.9-2.5c-1.2-2.8-1.9-3.2-5.1-3c-2.8,0.2-5.6,0.3-8.4,0.3c-2.3,0-3.6,0.9-4.4,3c-1.3,3.5-3.4,8.7-4.8,12.2
	c-0.4,0.9-0.7,1.8-1.3,2.6c-1.1,1.6-3.2,2.4-5.1,2c-1.4-0.3-2.2-1.2-2-2.7c0.2-1.2,0.6-2.4,1.1-3.5c3.3-8.3,7.5-18.2,10.6-26.7
	c2.4-6.7,5.2-13.3,8.4-19.7c0.7-1.3,1.2-2.8,1.8-4.1c0.7-1.7,2-2.6,3.9-2.8c2.4-0.2,4.7-0.4,7.1-0.6c2.2-0.2,3.7,0.8,4.6,2.8
	c0.3,0.7,0.6,1.5,0.8,2.2c1.4,6.8,4.1,13.3,6,20c0.9,3.2,1.9,6.4,3,9.6c0.8,2.5,1.9,4.9,2.7,7.4c1.4,4.4,2.9,8.9,4.1,13.4
	c0.6,2.3-0.3,3.5-2.7,3.8C193.7,1064.6,191.4,1064.8,188.7,1065L188.7,1065z M166.8,1037.8c1.1,0,1.9,0,2.8-0.1c2-0.3,2.5-1,2-3.1
	c-0.7-2.4-1.4-4.7-2.2-7c-0.2-0.6-0.5-1.1-0.8-1.6c-0.4-0.6-1.1-0.6-1.5,0c-0.2,0.3-0.4,0.6-0.5,0.9c-1,2.7-2.1,5.4-3.1,8.1
	c-0.1,0.3-0.2,0.7-0.3,1c-0.1,1,0.4,1.7,1.4,1.8C165.4,1037.9,166.2,1037.8,166.8,1037.8z"/>
<path d="M262.4,1034.8c0-5.3,0-10.7,0-16c0-3.3,0.1-6.5,0.2-9.8c0.1-2.9,1.1-3.9,3.9-4c2.6-0.1,5.3,0.1,7.9,0.2
	c5.1,0.2,10.2,0.4,15.3,0.5c4.8,0.1,9.7,0.1,14.5,0c3.7-0.1,5.2,1.1,5.3,5.1c0.2,5,0.1,10,0.1,14.9c0,1.1-0.1,2.3-1.4,2.7
	c-1.2,0.4-2-0.5-2.6-1.4c-1-1.4-1.8-2.9-3-4.1c-2.5-2.6-5-5.2-7.8-7.3c-3.5-2.7-7.7-4.3-12-5.5c-1.9-0.5-2.7,0.1-2.9,2.1
	c-0.1,0.6-0.1,1.3-0.1,1.9c0,6,0,11.9,0,17.9c0,0.7,0,1.5,0.1,2.2c0.2,1.1,1,1.5,1.9,0.8c0.7-0.5,1.4-1.1,2.1-1.7
	c2.1-1.8,4.1-3.7,6.2-5.5c0.5-0.5,1.1-1,1.6-1.4c1.9-1.3,3.3-0.7,3.4,1.6c0.1,1.5,0,3.1,0,4.6c-0.1,1.5-0.2,3.1-0.3,4.6
	c-0.2,2.8-1,3.6-3.8,3.7c-2.3,0-4.6-0.1-6.9-0.1c-0.4,0-0.9-0.1-1.3,0c-1.6,0.1-2.4,0.9-2.7,2.5c-0.1,0.5-0.1,1.1-0.1,1.6
	c0,3.8,0,7.6,0,11.4c0,0.3,0,0.5,0,0.8c0.1,2.4,0.7,2.9,2.9,2.8c2.9-0.2,5.7-1,8.3-2.5c5.5-3.3,10.1-7.5,13.3-13.3
	c0.6-1,1.2-2,1.8-3c0.3-0.5,0.7-1.1,1.1-1.5c0.8-0.8,1.9-0.6,2.3,0.5c0.2,0.6,0.4,1.2,0.4,1.8c0.2,5.6,0.4,11.2,0.6,16.8
	c0,0.9,0,1.8-0.2,2.7c-0.2,1.6-1.1,2.7-2.7,3c-1.1,0.2-2.3,0.4-3.4,0.4c-5,0-10,0-15.1,0c-7,0-14.1,0.1-21.1,0.2
	c-0.9,0-1.8,0-2.6-0.1c-1.7-0.2-2.5-1-2.9-2.7c-0.2-0.8-0.2-1.6-0.2-2.4C262.5,1051.5,262.4,1043.1,262.4,1034.8L262.4,1034.8
	L262.4,1034.8z"/>
<path d="M215.9,1061.1c-3.2-6.1-6-12.4-8.8-18.7c-4.5-10-9.2-20-13.8-30.1c-0.3-0.6-0.6-1.3-0.9-1.9c-0.8-2-0.4-3.3,1.3-4.7
	c0.3-0.2,0.6-0.4,0.9-0.6c3.1-2,5-1.6,6.6,1.7c3.1,6.5,6.2,13.1,9.2,19.6c3.4,7.3,6.7,14.6,10,21.9c0.3,0.6,0.5,1.1,0.8,1.6
	c0.6,1,1.4,0.9,2-0.1c0.2-0.3,0.3-0.6,0.4-1c2-5.1,3.9-10.2,5.9-15.3c1.4-3.6,2.7-7.3,4.1-10.9c1.2-3.4,2.4-6.8,3.6-10.2
	c0.6-1.6,1.2-3.1,1.8-4.7c0.9-2,2.5-2.8,4.6-2.8c4.4,0,7.5-0.2,11.1,0.3c0.5,0.1,1,0.3,1.5,0.5c1.3,0.7,1.8,1.6,1.5,3.1
	c-0.2,0.9-0.8,3-1.2,3.9c-2.6,7.2-4.9,14.6-8.1,21.5c-0.9,2-1.6,4.1-2.4,6.2c-2.8,6.9-5.7,13.9-8.5,20.8c-0.2,0.6-0.5,1.1-0.8,1.7
	c-0.7,1.3-1.9,2.1-3.4,2.2c-1.1,0-2.3,0-3.4,0c0,0-5.6-0.3-8.4-0.4C218.8,1064.8,217.1,1063.5,215.9,1061.1"/>
<path d="M62.5,1065c-1.1,0-2.4,0-3.7,0c-1.6,0-2.9-0.8-3.5-2.3c-0.4-0.8-0.7-1.6-1-2.4c-1.2-3.2-2.4-6.4-3.5-9.7
	c-0.3-0.8-0.6-1.7-0.9-2.5c-1.2-2.8-1.9-3.2-5.1-3c-2.8,0.2-5.6,0.3-8.4,0.3c-2.3,0-3.6,0.9-4.4,3c-1.3,3.5-3.4,8.7-4.8,12.2
	c-0.4,0.9-0.7,1.8-1.3,2.6c-1.1,1.6-3.2,2.4-5.1,2c-1.4-0.3-2.2-1.2-2-2.7c0.2-1.2,0.6-2.4,1.1-3.5c3.3-8.3,7.5-18.2,10.6-26.7
	c2.4-6.7,5.2-13.3,8.4-19.7c0.7-1.3,1.2-2.8,1.8-4.1c0.7-1.7,2-2.6,3.9-2.8c2.4-0.2,4.7-0.4,7.1-0.6c2.2-0.2,3.7,0.8,4.6,2.8
	c0.3,0.7,0.6,1.5,0.8,2.2c1.4,6.8,4.1,13.3,6,20c0.9,3.2,1.9,6.4,3,9.6c0.8,2.5,1.9,4.9,2.7,7.4c1.4,4.4,2.9,8.9,4.1,13.4
	c0.6,2.3-0.3,3.5-2.7,3.8C67.5,1064.6,65.1,1064.8,62.5,1065L62.5,1065z M40.5,1037.8c1.1,0,1.9,0,2.8-0.1c2-0.3,2.5-1,2-3.1
	c-0.7-2.4-1.4-4.7-2.2-7c-0.2-0.6-0.5-1.1-0.8-1.6c-0.4-0.6-1.1-0.6-1.5,0c-0.2,0.3-0.4,0.6-0.5,0.9c-1,2.7-2.1,5.4-3.1,8.1
	c-0.1,0.3-0.2,0.7-0.3,1c-0.1,1,0.4,1.7,1.4,1.8C39.1,1037.9,39.9,1037.8,40.5,1037.8z"/>
<g>
	<g>
		<path d="M36.7,349.5c0-4.8,0-9.7,0-14.5c0-2.9,0.4-3.3,3.3-3.3c4.6,0,9.1,0,13.7,0.1c3.4,0.1,6.6,0.9,9.9,1.8
			c2.4,0.7,4.2,2.2,5.5,4.2c1.6,2.3,2.4,4.8,2.5,7.6c0,2.3,0.1,4.6,0,6.9c-0.2,4.1-1.5,7.9-3.9,11.3c-0.7,1.1-1.7,1.9-2.8,2.6
			c-3.3,2.2-7,3.3-10.9,3.5c-4.5,0.2-9,0.1-13.5,0.2c-0.4,0-0.8,0-1.2-0.1c-1.6-0.2-2.2-0.8-2.3-2.5c-0.1-0.9-0.2-1.7-0.2-2.6
			c0-3.5,0-6.9-0.1-10.4C36.7,352.7,36.7,351.1,36.7,349.5L36.7,349.5L36.7,349.5z M48.5,349.8c0,3.9,0,7.7,0,11.6
			c0,1,0.1,2,0.2,2.9c0,0.6,0,1.2,0.6,1.5c0.7,0.4,1.2-0.3,1.7-0.6c3.7-2.8,6.3-6.4,8.3-10.5c0.6-1.2,1.1-2.6,1.2-3.9
			c0.5-4.3-0.2-8.5-2.1-12.4c-0.5-1-1.2-1.8-2.2-2.4c-1.8-1-3.8-1.4-5.8-1.6c-1-0.1-1.5,0.4-1.7,1.4c-0.1,0.6-0.1,1.1-0.1,1.7
			C48.5,341.6,48.5,345.7,48.5,349.8z"/>
		<path d="M76.2,349.8c0.1-4.8,0.1-10,0.2-15.2c0-0.2,0-0.3,0-0.5c0.1-1.8,0.7-2.3,2.5-2.4c2,0,4,0,6.1,0c2.8,0,5.7,0.1,8.5,0.1
			c2.7,0,5.4,0.3,8.1,0.7c1.3,0.2,2.6,0.6,3.8,1.2c1.2,0.7,2.1,1.6,2.5,2.9c0.4,1.3,0.8,2.5,1.1,3.8c1.2,4.4-1.8,11.2-8.2,12.2
			c-0.5,0.1-1,0.1-1.5,0.3c-0.4,0.1-0.7,0.5-0.5,0.9c0.1,0.4,0.3,0.8,0.4,1.1c0.9,1.7,2.1,3,3.7,4c2.5,1.7,5.3,2.8,8.2,3.5
			c0.5,0.1,1,0.2,1.5,0.4c0.9,0.4,1.1,1.1,0.5,1.9c-0.2,0.3-0.6,0.6-0.9,0.8c-1.9,1.6-3.8,3.1-5.8,4.7c-1.4,1.1-2.2,1.1-3.6,0.2
			c-3.1-1.9-5.3-4.4-6.4-7.9c-0.8-2.5-1.4-5-1.6-7.6c0-0.3,0-0.6-0.1-0.9c-0.2-1.1-0.5-1.4-1.6-1.5c-1-0.1-2-0.1-2.9,0
			c-1.3,0.1-1.9,0.6-1.9,1.9c-0.1,1.7,0,3.3,0,5c0,2.6,0.2,4.9,0.2,7.5c0,0.2,0,0.5,0,0.7c-0.2,1.2-0.8,1.8-2,1.8
			c-2.3,0-4.8,0-7.1,0c-0.3,0-0.7-0.1-1-0.1c-0.9-0.2-1.5-0.7-1.6-1.6c-0.1-0.9-0.2-1.7-0.3-2.6C76.3,360.3,76.2,355.3,76.2,349.8
			L76.2,349.8z M87.9,346.2c0,0.6,0,1.2,0.1,1.7c0.2,1.1,0.7,1.5,1.8,1.5c2.1-0.1,4.3-0.4,6.3-1.2c1.2-0.5,2.2-1.3,2.7-2.6
			c0.7-1.8,0.9-3.7,0.5-5.6c-0.2-1-0.7-2-1.5-2.7c-2.3-2.1-5.1-2.8-8.2-2.7c-0.8,0-1.2,0.5-1.4,1.3c-0.1,0.4-0.1,0.9-0.1,1.4
			C88,338.8,88,344.7,87.9,346.2L87.9,346.2z"/>
		<path d="M116.6,350.4c0-5,0-10,0-15.1c0-0.6,0-1.3,0.1-1.9c0.2-1.1,0.7-1.6,1.8-1.7c0.2,0,0.3,0,0.5,0c2.2,0,4.5,0,6.7,0
			c1.9,0,2.5,0.8,2.5,2.7c0,7.3-0.1,14.5-0.1,21.8c0,3.2,0.1,6.5,0.2,9.7c0,0.7-0.1,1.4-0.2,2.1c-0.2,0.9-0.7,1.5-1.7,1.5
			c-2.6,0.1-5.2,0.2-7.8,0.1c-1.1,0-1.6-0.6-1.9-1.7c-0.1-0.6-0.1-1.1-0.2-1.7c-0.1-4.8-0.1-9.6-0.2-14.4
			C116.6,351.3,116.6,350.8,116.6,350.4L116.6,350.4z"/>
		<path d="M146.2,349.5c0,0.6-0.2,1.3,0.5,1.5c0.6,0.2,0.9-0.3,1.3-0.6c1.8-1.6,3.7-3.2,5.5-4.7c0.3-0.3,0.7-0.6,1.1-0.8
			c0.6-0.3,1.2-0.1,1.4,0.5c0.1,0.4,0.2,0.8,0.2,1.2c-0.1,1.8-0.1,3.7-0.2,5.5c0,0.3-0.1,0.6-0.1,0.9c-0.3,1.1-0.7,1.5-1.8,1.5
			c-1.4,0.1-2.9,0-4.3,0c-0.7,0-1.5,0-2.2,0.1c-0.7,0.1-1.1,0.6-1.2,1.3c-0.1,0.5-0.1,0.9-0.1,1.4c0,3.3,0.1,6.6,0.2,9.9
			c0,1.6-0.4,2.2-2,2.5c-0.3,0.1-0.7,0.1-1,0.1c-2.1,0-4.2,0-6.2,0c-1.6,0-2.1-0.6-2.2-2.1c-0.1-1.8-0.2-3.7-0.2-5.5
			c-0.1-3.4-0.2-6.8-0.3-10.2c0-0.9,0-1.8,0-2.8c0.1-4.4,0.1-8.9,0.2-13.3c0-0.7,0-1.4,0.1-2.1c0.2-1.4,0.8-1.9,2.1-2.1
			c0.1,0,0.2,0,0.3,0c4.3,0.1,8.5,0.1,12.8,0.2c1.3,0,2.5,0.1,3.8,0.1c2.9,0.1,5.8,0.1,8.7,0.1c0.2,0,0.5,0,0.7,0
			c1.5,0.2,2.1,0.8,2.4,2.3c0.1,0.4,0.1,0.8,0.1,1.2c0,3,0,6,0,9c0,0.3,0,0.7-0.1,1c-0.2,1.1-1.1,1.3-1.9,0.6
			c-0.3-0.3-0.6-0.7-0.9-1.1c-1.4-2.3-3.2-4.2-5.2-6c-2.4-2.2-5.3-3.5-8.4-4.2c-2.4-0.5-2.9,0-2.9,2.4
			C146.3,339.4,146.1,347.4,146.2,349.5L146.2,349.5z"/>
		<path d="M182.5,353.2c0-4.3,0-8.5,0-12.8c0-0.6,0-1.3-0.1-1.9c-0.1-0.7-0.7-0.9-1.3-0.5c-0.3,0.2-0.7,0.5-1,0.7
			c-2.9,2.4-5.5,4.9-7.7,7.9c-0.4,0.5-0.9,1.1-1.4,1.5c-0.6,0.6-1.4,0.3-1.6-0.5c-0.1-0.4-0.1-0.9-0.1-1.4
			c-0.1-3.6-0.2-7.1-0.3-10.7c0-0.3,0-0.7,0-1c0.2-1.5,0.8-2.2,2.3-2.3c2.2-0.2,4.5-0.4,6.7-0.4c8.8,0,17.1,0,25.9,0
			c0.8,0,1.6,0,2.4,0.1c1.3,0.2,1.8,0.7,2.1,2c0.1,0.4,0.1,0.9,0.1,1.4c0,3.4,0,6.8,0,10.2c0,0.7-0.1,1.4-0.3,2.1
			c-0.2,1-1,1.2-1.9,0.6c-0.4-0.3-0.7-0.6-1-1c-2-2.2-3.9-4.4-6-6.5c-1.1-1.2-2.4-2.2-3.6-3.3c-0.3-0.3-0.7-0.4-1-0.6
			c-0.4-0.1-0.7,0.1-0.8,0.4c-0.1,0.4-0.2,0.8-0.2,1.2c0,3.7,0,7.5,0,11.2c0,4,0,8,0,11.9c0,1.3,0.1,2.5,0.1,3.8
			c0,0.9,0,1.8-0.1,2.8c-0.2,1-0.9,1.5-1.9,1.5c-2.7,0-4.8,0.2-7.5-0.1c-0.9-0.1-1.5-0.7-1.6-1.6c-0.1-0.7-0.2-1.4-0.2-2.1
			C182.5,361.7,182.5,357.5,182.5,353.2L182.5,353.2L182.5,353.2z"/>
	</g>
	<g>
		<path d="M283.9,365.7c0,1.1-0.1,2.2-0.2,3.3c-0.2,1.4-0.6,1.8-2,2c-1.5,0.2-3.1,0.3-4.7,0.3c-2.3,0-4.5,0-6.8,0
			c-1.8,0-3.1-0.7-3.9-2.3c-1.7-3.7-3.5-7.4-5.2-11.1c-0.8-1.7-1.4-3.4-2.1-5.1c-0.2-0.5-0.4-1.1-1-1.1c-0.7-0.1-0.9,0.6-1.2,1.1
			c-2.5,5-5.1,10-7.6,15c-0.4,0.7-0.7,1.5-1.2,2.1c-0.4,0.5-0.9,0.9-1.5,1.1c-1.7,0.6-3.2-0.2-3.4-2c-0.2-1.3-0.2-2.6-0.2-4
			c-0.2-3.6-0.4-7.3-0.5-10.9c0-0.8,0-1.6,0-2.4c0-4-0.1-8.1-0.2-12.1c0-1.2-0.1-2.4-0.2-3.6c0-0.5,0-1,0.2-1.4
			c0.2-0.5,0.5-1,0.9-1.2c1.2-0.7,2.5-0.6,3.9-0.2c0.5,0.2,0.8,0.6,0.9,1.2c0.1,0.6,0.2,1.3,0.2,1.9c0.1,4.8,0.1,9.7,0.2,14.5
			c0,1.3,0.1,2.5,0.2,3.8c0,0.2,0.1,0.7,0.4,0.7c0.3,0.1,0.6-0.3,0.8-0.5c0.2-0.2,0.3-0.5,0.4-0.7c2-3.9,4-7.8,5.5-12
			c0.9-2.6,2-5.2,3.1-7.7c0.3-0.6,0.6-1.2,1.1-1.8c0.6-0.7,1.4-0.8,2.1-0.1c0.4,0.4,0.8,0.9,1,1.4c0.8,1.7,1.7,3.4,2.4,5.2
			c2.1,5.2,4,10.4,6.1,15.7c0.2,0.6,0.5,1.2,0.9,1.7c0.2,0.2,0.5,0.1,0.5-0.1c0.1-0.5,0.2-1,0.2-1.5c-0.1-3.1-0.1-6.1-0.2-9.2
			c-0.1-3.5-0.3-7-0.4-10.5c0-0.3,0-0.7,0-1c0.1-1.1,0.6-1.6,1.6-1.7c2.2-0.1,4.5-0.2,6.7-0.2c1.5,0,2.1,0.7,2.3,2.3
			c0.1,0.5,0.1,0.9,0.1,1.4c0.1,4.1,0.3,8.2,0.4,12.3c0.1,3.1,0.2,6.2,0.3,9.3C284.1,357.8,284,363.5,283.9,365.7L283.9,365.7z"/>
		<path d="M315.3,371.1c-0.7,0-1.6,0-2.4,0c-1.1,0-1.9-0.5-2.3-1.5c-0.2-0.5-0.5-1.1-0.7-1.6c-0.8-2.1-1.5-4.2-2.3-6.3
			c-0.2-0.5-0.4-1.1-0.6-1.6c-0.8-1.8-1.3-2.1-3.3-2c-1.8,0.1-3.7,0.2-5.5,0.2c-1.5,0-2.4,0.6-2.9,2c-0.9,2.3-2.2,5.7-3.1,8
			c-0.2,0.6-0.5,1.2-0.8,1.7c-0.7,1.1-2.1,1.6-3.4,1.3c-0.9-0.2-1.4-0.8-1.3-1.7c0.1-0.8,0.4-1.6,0.7-2.3c2.2-5.5,4.9-12,6.9-17.5
			c1.6-4.4,3.4-8.7,5.5-12.9c0.4-0.9,0.8-1.8,1.2-2.7c0.5-1.1,1.3-1.7,2.5-1.8c1.6-0.2,3.1-0.3,4.7-0.4c1.4-0.1,2.5,0.5,3,1.8
			c0.2,0.5,0.4,1,0.5,1.5c0.9,4.5,2.7,8.7,3.9,13.1c0.6,2.1,1.3,4.2,2,6.3c0.5,1.6,1.2,3.2,1.8,4.9c0.9,2.9,1.9,5.8,2.7,8.8
			c0.4,1.5-0.2,2.3-1.8,2.5C318.6,370.9,317,371,315.3,371.1L315.3,371.1z M300.9,353.3c0.7,0,1.3,0,1.8-0.1c1.3-0.2,1.7-0.7,1.3-2
			c-0.4-1.5-0.9-3.1-1.4-4.6c-0.1-0.4-0.3-0.7-0.5-1.1c-0.2-0.4-0.7-0.4-1,0c-0.1,0.2-0.2,0.4-0.3,0.6c-0.7,1.8-1.4,3.5-2,5.3
			c-0.1,0.2-0.1,0.4-0.2,0.7c-0.1,0.7,0.2,1.1,0.9,1.2C300,353.3,300.5,353.3,300.9,353.3z"/>
		<path d="M363.6,351.3c0-3.5,0-7,0-10.5c0-2.1,0.1-4.3,0.2-6.4c0.1-1.9,0.7-2.6,2.6-2.6c1.7,0,3.5,0.1,5.2,0.1
			c3.3,0.1,6.7,0.3,10,0.3c3.2,0.1,6.3,0.1,9.5,0c2.4,0,3.4,0.7,3.5,3.3c0.1,3.3,0.1,6.5,0.1,9.8c0,0.7-0.1,1.5-0.9,1.8
			c-0.8,0.3-1.3-0.3-1.7-0.9c-0.7-0.9-1.2-1.9-2-2.7c-1.6-1.7-3.3-3.4-5.1-4.8c-2.3-1.8-5.1-2.8-7.9-3.6c-1.2-0.3-1.7,0.1-1.9,1.3
			c-0.1,0.4,0,0.8,0,1.2c0,3.9,0,7.8,0,11.7c0,0.5,0,1,0.1,1.4c0.1,0.8,0.6,1,1.3,0.5c0.5-0.3,0.9-0.7,1.3-1.1
			c1.4-1.2,2.7-2.4,4-3.6c0.3-0.3,0.7-0.6,1.1-0.9c1.3-0.9,2.1-0.5,2.2,1.1c0,1,0,2,0,3c0,1-0.1,2-0.2,3c-0.1,1.8-0.7,2.4-2.5,2.4
			c-1.5,0-3,0-4.5-0.1c-0.3,0-0.6,0-0.9,0c-1.1,0.1-1.6,0.6-1.7,1.6c-0.1,0.3-0.1,0.7-0.1,1.1c0,2.5,0,5,0,7.5c0,0.2,0,0.4,0,0.5
			c0.1,1.6,0.4,1.9,1.9,1.8c1.9-0.1,3.8-0.6,5.4-1.6c3.6-2.2,6.6-4.9,8.7-8.7c0.4-0.7,0.8-1.3,1.2-2c0.2-0.3,0.5-0.7,0.7-1
			c0.5-0.5,1.2-0.4,1.5,0.3c0.1,0.4,0.2,0.8,0.2,1.2c0.1,3.7,0.3,7.3,0.4,11c0,0.6,0,1.2-0.1,1.8c-0.2,1-0.8,1.7-1.8,2
			c-0.7,0.2-1.5,0.2-2.2,0.2c-3.3,0-6.6,0-9.9,0c-4.6,0-9.2,0.1-13.8,0.1c-0.6,0-1.2,0-1.7-0.1c-1.1-0.1-1.7-0.6-1.9-1.8
			c-0.1-0.5-0.1-1.1-0.1-1.6C363.7,362.3,363.6,356.8,363.6,351.3L363.6,351.3L363.6,351.3z"/>
		<path d="M333.1,368.6c-2.1-4-3.9-8.1-5.8-12.2c-3-6.6-6-13.1-9-19.7c-0.2-0.4-0.4-0.8-0.6-1.3c-0.5-1.3-0.3-2.2,0.8-3.1
			c0.2-0.1,0.4-0.3,0.6-0.4c2.1-1.3,3.2-1,4.3,1.1c2.1,4.3,4.1,8.6,6,12.9c2.2,4.8,4.4,9.6,6.5,14.4c0.2,0.4,0.3,0.7,0.6,1.1
			c0.4,0.6,0.9,0.6,1.3-0.1c0.1-0.2,0.2-0.4,0.3-0.6c1.3-3.3,2.6-6.7,3.9-10c0.9-2.4,1.8-4.8,2.7-7.1c0.8-2.2,1.6-4.5,2.4-6.7
			c0.4-1,0.8-2.1,1.2-3.1c0.6-1.3,1.6-1.8,3-1.8c2.9,0,4.9-0.2,7.3,0.2c0.3,0,0.7,0.2,1,0.3c0.8,0.4,1.2,1.1,1,2
			c-0.1,0.6-0.5,2-0.8,2.6c-1.7,4.7-3.2,9.5-5.3,14.1c-0.6,1.3-1,2.7-1.6,4c-1.9,4.6-3.7,9.1-5.6,13.6c-0.2,0.4-0.3,0.7-0.5,1.1
			c-0.5,0.9-1.2,1.4-2.2,1.4c-0.7,0-1.5,0-2.3,0c0,0-3.7-0.2-5.5-0.2C335,371,333.9,370.1,333.1,368.6"/>
		<path d="M232.5,371.1c-0.7,0-1.6,0-2.4,0c-1.1,0-1.9-0.5-2.3-1.5c-0.2-0.5-0.5-1.1-0.7-1.6c-0.8-2.1-1.5-4.2-2.3-6.3
			c-0.2-0.5-0.4-1.1-0.6-1.6c-0.8-1.8-1.3-2.1-3.3-2c-1.8,0.1-3.7,0.2-5.5,0.2c-1.5,0-2.4,0.6-2.9,2c-0.9,2.3-2.2,5.7-3.1,8
			c-0.2,0.6-0.5,1.2-0.8,1.7c-0.7,1.1-2.1,1.6-3.4,1.3c-0.9-0.2-1.4-0.8-1.3-1.7c0.1-0.8,0.4-1.6,0.7-2.3c2.2-5.5,4.9-12,6.9-17.5
			c1.6-4.4,3.4-8.7,5.5-12.9c0.4-0.9,0.8-1.8,1.2-2.7c0.5-1.1,1.3-1.7,2.5-1.8c1.6-0.2,3.1-0.3,4.7-0.4c1.4-0.1,2.5,0.5,3,1.8
			c0.2,0.5,0.4,1,0.5,1.5c0.9,4.5,2.7,8.7,3.9,13.1c0.6,2.1,1.3,4.2,2,6.3c0.5,1.6,1.2,3.2,1.8,4.9c0.9,2.9,1.9,5.8,2.7,8.8
			c0.4,1.5-0.2,2.3-1.8,2.5C235.8,370.9,234.3,371,232.5,371.1L232.5,371.1z M218.2,353.3c0.7,0,1.3,0,1.8-0.1
			c1.3-0.2,1.7-0.7,1.3-2c-0.4-1.5-0.9-3.1-1.4-4.6c-0.1-0.4-0.3-0.7-0.5-1.1c-0.2-0.4-0.7-0.4-1,0c-0.1,0.2-0.2,0.4-0.3,0.6
			c-0.7,1.8-1.4,3.5-2,5.3c-0.1,0.2-0.1,0.4-0.2,0.7c-0.1,0.7,0.2,1.1,0.9,1.2C217.2,353.3,217.8,353.3,218.2,353.3z"/>
	</g>
</g>
<g>
	<g>
		<path class="st0" d="M991.1,630.4c-1.8,8.6-10.5,37.4-47.1,42.1c-31.5,4.1-56.4-14-60.7-17.3c-0.4-0.3-1-0.4-1.5-0.2l-9.3,3.7
			c-1,0.4-1.3,1.8-0.4,2.5c1.6,1.5,3.1,3.2,4.3,5.2c10,16.8,13.2,39.7,1.7,65.7c-0.3,0.6,0.2,1.4,0.9,1.3c4.8-0.4,19.4-1.7,25.6-2.2
			c1.3-0.1,2.1-1.5,1.6-2.7c-0.3-0.7-0.7-1.5-1-2.2c-0.9-2.2-1.8-4.5-2.5-6.9c-0.3-0.9-1.2-1.3-2-0.9c-2.1,0.9-6.2,2.7-11.4,4.3
			c-1.2,0.4-2.3-0.7-1.9-1.9c1.5-5.6,2.5-11.1,2.8-16.5c0.1-0.7,0.6-1.3,1.4-1.4l21-1.8c0.8-0.1,1.5,0.5,1.6,1.4
			c0.7,8.2,6.9,47.3,58.4,43.7c0.9-0.1,1.6,0.6,1.6,1.5v24.1c0,0.9-0.8,1.6-1.7,1.5c-2.2-0.3-6.2-1-11.3-2.4
			c-9.1-2.5-21.5-7.1-32.9-15.5c-1.7-1.3-3.5-2.7-5.2-4.2c-1.3-1.1-3.2,0.4-2.3,1.8c6.6,11.4,19.6,22.9,45.2,22.9
			c2.1,0,4.3-0.1,6.6-0.2c0.9-0.1,1.6,0.6,1.6,1.5v24.1c0,0.9-0.8,1.6-1.7,1.5c-9.6-1.4-56.6-10.5-69.8-53.9
			c-0.2-0.8-1.1-1.2-1.9-0.9c-4.6,2.1-19.2,8.2-34.6,8.2c-16.7,0-34.1-7.2-40.3-34.6c-0.4-1.7-2.9-1.3-2.7,0.4
			c0.2,2,0.5,4.2,0.9,6.4c0.2,1.2-1,2.1-2,1.6c-2.6-1.2-7.1-2.6-14-2.6c-7.7,0-18.3,1.7-32.4,7.5c-23,9.4-56,21.4-92.6,21.4
			c-20.1,0-41.3-3.6-62.5-13.3c-0.6-0.3-1.3-0.1-1.7,0.3l-23.8,25.9c-0.3,0.3-0.4,0.6-0.4,1v25.6c0,0.8-0.7,1.5-1.5,1.5l-32.3-0.3
			c-1.2,0-1.9-1.4-1.2-2.4l59.8-80.3c0.5-0.7,1.5-0.8,2.1-0.3c2.8,2.2,10.7,7.5,23.5,10.6c0.6,0.2,1.2-0.1,1.6-0.6l9.6-12.9
			c0.5-0.7,1.5-0.8,2.1-0.3c1.1,0.9,3.1,2.3,5.9,3.8c1.2,0.7,2.6-0.5,2.1-1.8c-5.7-14-11.1-35.9,1.8-50.9
			c14.5-16.9,18.1-31,18.9-37.8c0.2-1.3-1.3-2.1-2.2-1.3c-4.1,3.6-10.5,4.4-17.1,4.4c-0.6,0-1.2,0-1.9,0h-0.3
			c-7.7,0-14,4.7-15.4,5.9c-0.2,0.1-0.3,0.3-0.4,0.5l-4.2,9.1c-0.2,0.5-0.7,0.8-1.2,0.9l-14.2,1.2c-0.5,0.1-1.1-0.2-1.4-0.6
			l-10.5-15.2c-0.4-0.5-0.4-1.3,0-1.8l25.3-33c0.6-0.8,1.9-0.8,2.5,0.1l0.9,1.5c0.3,0.5,0.8,0.7,1.3,0.7h6c0.4,0,0.8-0.2,1-0.4
			l5.2-4.9c0.7-0.6,1.8-0.5,2.3,0.3l2.7,4.3c0.3,0.5,0.8,0.7,1.3,0.7h9.1c0.3,0,0.6-0.1,0.9-0.3l12.6-9.7c0.3-0.2,0.6-0.3,0.9-0.3
			h5.9c1.8,0,3.5-1,4.4-2.5l0.2-0.3h-45.9c-1.2,0-1.9-1.4-1.2-2.4l1.7-2.3c0.2-0.3,0.3-0.6,0.3-0.9v-17.4c0-1.3,1.5-2,2.5-1.1
			l7.8,7.1c1,0.9,2.5,0.2,2.5-1.1v-11.3c0-1.3,1.5-2,2.5-1.1l8.6,7.8c0.3,0.3,0.8,0.4,1.2,0.4c1.1-0.1,3.6-0.4,7.1-0.4
			c17.9,0,60.9,7,65.6,73.6c0.1,0.6-0.3,1.3-0.8,1.6c-5.5,3.1-11.3,5.2-16.4,6.7c-0.1,0-0.1,0-0.2,0.1c-0.2,0.1-0.3,0.3-0.3,0.5
			c0,0.3,0.3,0.5,0.6,0.5v0c10.2-1.8,17.1-3.9,17.1-3.9s47.5-11.4,57.2-81.5c0.1-0.5,0.3-0.9,0.8-1.1L952.9,480
			c1.2-0.6,2.5,0.5,2.2,1.7c-2.2,7.2-5.9,12.6-9.6,16.5c-0.9,1-0.1,2.4,1,2.4c0.2,0,0.4,0,0.6-0.1c1.1-0.5,2.3,0.6,1.9,1.7
			c-3.3,9.4-8.2,15.4-12,18.9c-0.7,0.6,0,1.7,0.9,1.3l2.7-1.2c1.4-0.6,2.8,0.7,2.3,2.1c-3.6,10.2-8.8,16.1-12.4,19.6
			c-0.6,0.5,0.1,1.5,0.8,1.1l3.4-1.8c1.2-0.7,2.6,0.5,2.1,1.8c-3.9,11-9.1,16.7-12.8,20.1c-0.5,0.4,0.1,1.2,0.6,0.9l4.7-2.5
			c1.1-0.6,2.2,0.5,1.9,1.6c-4.2,13.3-13.2,22.1-23.4,26.3l-51.4,19.5c-0.4,0.1-0.7,0.5-0.9,0.8c-2,5-18.9,41.3-56.9,63.9
			c-0.6,0.4-0.1,1.2,0.5,1c6.7-3,17-8.5,27.1-17.2c5.3-4.6,12.1-7.1,19-7.1c1.8,0,3.6,0.2,5.3,0.5c2.9,0.5,6,1.3,9,2.4
			c0.5,0.2,1.2,0,1.6-0.4l20.7-21.6c0.4-0.5,1.1-0.6,1.7-0.4c6.6,2.9,47.9,18.7,105.6-3.1C990.3,628.4,991.3,629.3,991.1,630.4z"/>
		<g>
			<path class="st0" d="M639.1,757.9l-7.3,7.9c-0.3,0.4-0.5,0.8-0.5,1.3v28.5c0,1.1-0.9,2-2,1.9l-29.9-0.3l-1.3,0
				c-1.6,0-2.5-1.8-1.6-3l2.8-4.1l26.3-38.1c0.5-0.7,1.5-1,2.3-0.7c1,0.4,2.1,0.8,3.1,1.1c2.3,0.8,4.7,1.6,7.1,2.3
				C639.6,755.1,640.1,756.9,639.1,757.9z"/>
		</g>
	</g>
	<path class="st0" d="M787,558c-11.6,4.6-15.8,8.8-20.4,20.4c-0.2,0.6-1,0.6-1.2,0c-4.6-11.6-8.8-15.8-20.4-20.4
		c-0.6-0.2-0.6-1,0-1.2c11.6-4.6,15.8-8.8,20.4-20.4c0.2-0.6,1-0.6,1.2,0c4.6,11.6,8.8,15.8,20.4,20.4
		C787.5,557,787.5,557.8,787,558z"/>
	<path class="st0" d="M637.9,679c-10.1,4-13.7,7.7-17.8,17.8c-0.2,0.6-1,0.6-1.2,0c-4-10.1-7.7-13.7-17.8-17.8c-0.6-0.2-0.6-1,0-1.2
		c10.1-4,13.7-7.7,17.8-17.8c0.2-0.6,1-0.6,1.2,0c4,10.1,7.7,13.7,17.8,17.8C638.5,678,638.5,678.7,637.9,679z"/>
	<path class="st0" d="M598.1,678.9c-5.1,2.1-7.1,4.2-9.2,9.2c-0.2,0.5-1,0.5-1.2,0c-2.1-5.1-4.2-7.1-9.2-9.2c-0.5-0.2-0.5-1,0-1.2
		c5.1-2.1,7.1-4.2,9.2-9.2c0.2-0.5,1-0.5,1.2,0c2.1,5.1,4.2,7.1,9.2,9.2C598.6,678,598.6,678.7,598.1,678.9z"/>
	<path class="st0" d="M989,726.2c-8,3.2-11,6.2-14.2,14.2c-0.2,0.5-1,0.5-1.2,0c-3.2-8-6.2-11-14.2-14.2c-0.5-0.2-0.5-1,0-1.2
		c8-3.2,11-6.2,14.2-14.2c0.2-0.5,1-0.5,1.2,0c3.2,8,6.2,11,14.2,14.2C989.5,725.2,989.5,726,989,726.2z"/>
</g>
<g>
	<path class="st0" d="M999.6,150.6c-1.8,8.6-10.5,37.4-47.1,42.1c-31.5,4.1-56.4-14-60.7-17.3c-0.4-0.3-1-0.4-1.5-0.2L881,179
		c-1,0.4-1.3,1.8-0.4,2.5c1.6,1.5,3.1,3.2,4.3,5.2c10,16.8,13.2,39.7,1.7,65.7c-0.3,0.6,0.2,1.4,0.9,1.3c4.8-0.4,19.4-1.7,25.6-2.2
		c1.3-0.1,2.1-1.5,1.6-2.7c-0.3-0.7-0.7-1.5-1-2.2c-0.9-2.2-1.8-4.5-2.5-6.9c-0.3-0.9-1.2-1.3-2-0.9c-2.1,0.9-6.2,2.7-11.4,4.3
		c-1.2,0.4-2.3-0.7-1.9-1.9c1.5-5.6,2.5-11.1,2.8-16.5c0.1-0.7,0.6-1.3,1.4-1.4l21-1.8c0.8-0.1,1.5,0.5,1.6,1.4
		c0.7,8.2,6.9,47.3,58.4,43.7c0.9-0.1,1.6,0.6,1.6,1.5V292c0,0.9-0.8,1.6-1.7,1.5c-2.2-0.3-6.2-1-11.3-2.4
		c-9.1-2.5-21.5-7.1-32.9-15.5c-1.7-1.3-3.5-2.7-5.2-4.2c-1.3-1.1-3.2,0.4-2.3,1.8c6.6,11.4,19.6,22.9,45.2,22.9
		c2.1,0,4.3-0.1,6.6-0.2c0.9-0.1,1.6,0.6,1.6,1.5v24.1c0,0.9-0.8,1.6-1.7,1.5c-9.6-1.4-56.6-10.5-69.8-53.9
		c-0.2-0.8-1.1-1.2-1.9-0.9c-4.6,2.1-19.2,8.2-34.6,8.2c-16.7,0-34.1-7.2-40.3-34.6c-0.4-1.7-2.9-1.3-2.7,0.4c0.2,2,0.5,4.2,0.9,6.4
		c0.2,1.2-1,2.1-2,1.6c-2.6-1.2-7.1-2.6-14-2.6c-7.7,0-18.3,1.7-32.4,7.5c-23,9.4-56,21.4-92.6,21.4c-20.1,0-41.3-3.6-62.5-13.3
		c-0.6-0.3-1.3-0.1-1.7,0.3l-23.8,25.9c-0.3,0.3-0.4,0.6-0.4,1v25.6c0,0.8-0.7,1.5-1.5,1.5l-32.3-0.3c-1.2,0-1.9-1.4-1.2-2.4
		l59.8-80.3c0.5-0.7,1.5-0.8,2.1-0.3c2.8,2.2,10.7,7.5,23.5,10.6c0.6,0.2,1.2-0.1,1.6-0.6l9.6-12.9c0.5-0.7,1.5-0.8,2.1-0.3
		c1.1,0.9,3.1,2.3,5.9,3.8c1.2,0.7,2.6-0.5,2.1-1.8c-5.7-14-11.1-35.9,1.8-50.9c14.5-16.9,18.1-31,18.9-37.8
		c0.2-1.3-1.3-2.1-2.2-1.3c-4.1,3.6-10.5,4.4-17.1,4.4c-0.6,0-1.2,0-1.9,0H674c-7.7,0-14,4.7-15.4,5.9c-0.2,0.1-0.3,0.3-0.4,0.5
		l-4.2,9.1c-0.2,0.5-0.7,0.8-1.2,0.9l-14.2,1.2c-0.5,0.1-1.1-0.2-1.4-0.6L626.7,149c-0.4-0.5-0.4-1.3,0-1.8l25.3-33
		c0.6-0.8,1.9-0.8,2.5,0.1l0.9,1.5c0.3,0.5,0.8,0.7,1.3,0.7h6c0.4,0,0.8-0.2,1-0.4l5.2-4.9c0.7-0.6,1.8-0.5,2.3,0.3l2.7,4.3
		c0.3,0.5,0.8,0.7,1.3,0.7h9.1c0.3,0,0.6-0.1,0.9-0.3l12.6-9.7c0.3-0.2,0.6-0.3,0.9-0.3h5.9c1.8,0,3.5-1,4.4-2.5l0.2-0.3h-45.9
		c-1.2,0-1.9-1.4-1.2-2.4l1.7-2.3c0.2-0.3,0.3-0.6,0.3-0.9V80.5c0-1.3,1.5-2,2.5-1.1l7.8,7.1c1,0.9,2.5,0.2,2.5-1.1V74.1
		c0-1.3,1.5-2,2.5-1.1l8.6,7.8c0.3,0.3,0.8,0.4,1.2,0.4c1.1-0.1,3.6-0.4,7.1-0.4c17.9,0,60.9,7,65.6,73.6c0.1,0.6-0.3,1.3-0.8,1.6
		c-5.5,3.1-11.3,5.2-16.4,6.7c-0.1,0-0.1,0-0.2,0.1c-0.2,0.1-0.3,0.3-0.3,0.5c0,0.3,0.3,0.5,0.6,0.5v0c10.2-1.8,17.1-3.9,17.1-3.9
		s47.5-11.4,57.2-81.5c0.1-0.5,0.3-0.9,0.8-1.1L961.4,0.2c1.2-0.6,2.5,0.5,2.2,1.7c-2.2,7.2-5.9,12.6-9.6,16.5c-0.9,1-0.1,2.4,1,2.4
		c0.2,0,0.4,0,0.6-0.1c1.1-0.5,2.3,0.6,1.9,1.7c-3.3,9.4-8.2,15.4-12,18.9c-0.7,0.6,0,1.7,0.9,1.3l2.7-1.2c1.4-0.6,2.8,0.7,2.3,2.1
		c-3.6,10.2-8.8,16.1-12.4,19.6c-0.6,0.5,0.1,1.5,0.8,1.1l3.4-1.8c1.2-0.7,2.6,0.5,2.1,1.8c-3.9,11-9.1,16.7-12.8,20.1
		c-0.5,0.4,0.1,1.2,0.6,0.9l4.7-2.5c1.1-0.6,2.2,0.5,1.9,1.6c-4.2,13.3-13.2,22.1-23.4,26.3l-51.4,19.5c-0.4,0.1-0.7,0.5-0.9,0.8
		c-2,5-18.9,41.3-56.9,63.9c-0.6,0.4-0.1,1.2,0.5,1c6.7-3,17-8.5,27.1-17.2c5.3-4.6,12.1-7.1,19-7.1c1.8,0,3.6,0.2,5.3,0.5
		c2.9,0.5,6,1.3,9,2.4c0.5,0.2,1.2,0,1.6-0.4l20.7-21.6c0.4-0.5,1.1-0.6,1.7-0.4c6.6,2.9,47.9,18.7,105.6-3.1
		C998.7,148.6,999.8,149.5,999.6,150.6z"/>
	<g>
		<path class="st0" d="M647.5,278.1l-7.3,7.9c-0.3,0.4-0.5,0.8-0.5,1.3v28.5c0,1.1-0.9,2-2,1.9l-29.9-0.3l-1.3,0
			c-1.6,0-2.5-1.8-1.6-3l2.8-4.1l26.3-38.1c0.5-0.7,1.5-1,2.3-0.7c1,0.4,2.1,0.8,3.1,1.1c2.3,0.8,4.7,1.6,7.1,2.3
			C648,275.4,648.5,277.1,647.5,278.1z"/>
	</g>
</g>
<path class="st0" d="M795.4,78.2c-11.6,4.6-15.8,8.8-20.4,20.4c-0.2,0.6-1,0.6-1.2,0c-4.6-11.6-8.8-15.8-20.4-20.4
	c-0.6-0.2-0.6-1,0-1.2c11.6-4.6,15.8-8.8,20.4-20.4c0.2-0.6,1-0.6,1.2,0c4.6,11.6,8.8,15.8,20.4,20.4C796,77.2,796,78,795.4,78.2z"
	/>
<path class="st0" d="M646.3,199.2c-10.1,4-13.7,7.7-17.8,17.8c-0.2,0.6-1,0.6-1.2,0c-4-10.1-7.7-13.7-17.8-17.8
	c-0.6-0.2-0.6-1,0-1.2c10.1-4,13.7-7.7,17.8-17.8c0.2-0.6,1-0.6,1.2,0c4,10.1,7.7,13.7,17.8,17.8C646.9,198.2,646.9,199,646.3,199.2
	z"/>
<path class="st0" d="M606.5,199.2c-5.1,2.1-7.1,4.2-9.2,9.2c-0.2,0.5-1,0.5-1.2,0c-2.1-5.1-4.2-7.1-9.2-9.2c-0.5-0.2-0.5-1,0-1.2
	c5.1-2.1,7.1-4.2,9.2-9.2c0.2-0.5,1-0.5,1.2,0c2.1,5.1,4.2,7.1,9.2,9.2C607.1,198.2,607.1,198.9,606.5,199.2z"/>
<path class="st0" d="M997.4,246.4c-8,3.2-11,6.2-14.2,14.2c-0.2,0.5-1,0.5-1.2,0c-3.2-8-6.2-11-14.2-14.2c-0.5-0.2-0.5-1,0-1.2
	c8-3.2,11-6.2,14.2-14.2c0.2-0.5,1-0.5,1.2,0c3.2,8,6.2,11,14.2,14.2C998,245.5,998,246.2,997.4,246.4z"/>
<g>
	<path class="st0" d="M904.8,937.7c-8.7,3.5-12,6.8-15.6,15.6c-0.2,0.6-1.1,0.6-1.3,0c-3.5-8.7-6.8-12-15.6-15.6
		c-0.6-0.2-0.6-1.1,0-1.3c8.7-3.5,12-6.8,15.6-15.6c0.2-0.6,1.1-0.6,1.3,0c3.5,8.7,6.8,12,15.6,15.6
		C905.4,936.6,905.4,937.5,904.8,937.7"/>
	<path class="st0" d="M603.8,963.4c0-7.4,0-14.8,0-22.2c0-4.4,0.7-5.1,5.1-5c7,0,13.9,0,20.9,0.2c5.1,0.2,10.1,1.4,15,2.8
		c3.6,1,6.4,3.3,8.5,6.4c2.4,3.5,3.7,7.4,3.7,11.7c0,3.5,0.1,7.1,0,10.6c-0.3,6.3-2.3,12.1-5.9,17.3c-1.1,1.6-2.6,2.9-4.2,3.9
		c-5.1,3.3-10.7,5.1-16.7,5.3c-6.9,0.2-13.7,0.2-20.6,0.2c-0.6,0-1.2-0.1-1.8-0.2c-2.5-0.3-3.3-1.2-3.6-3.8
		c-0.1-1.3-0.3-2.6-0.3-3.9c-0.1-5.3-0.1-10.6-0.1-15.8C603.8,968.3,603.8,965.8,603.8,963.4L603.8,963.4L603.8,963.4z M621.9,963.8
		c0,5.9,0,11.8,0,17.7c0,1.5,0.1,3,0.3,4.5c0.1,0.9,0,1.9,0.9,2.3c1.1,0.5,1.8-0.4,2.5-1c5.6-4.3,9.7-9.7,12.6-16
		c0.9-1.9,1.7-4,1.9-6c0.7-6.6-0.2-13-3.3-19c-0.8-1.5-1.9-2.7-3.4-3.6c-2.7-1.6-5.8-2.2-8.8-2.4c-1.5-0.1-2.3,0.6-2.6,2.1
		c-0.2,0.9-0.1,1.8-0.1,2.6C621.9,951.3,621.9,957.5,621.9,963.8z"/>
	<path class="st0" d="M664,963.7c0.1-7.3,0.2-15.2,0.3-23.2c0-0.3,0-0.5,0-0.8c0.2-2.7,1-3.6,3.8-3.6c3.1-0.1,6.2,0,9.2,0
		c4.3,0,8.6,0.2,12.9,0.2c4.2,0,8.3,0.4,12.3,1c2,0.3,4,0.9,5.7,1.9c1.8,1,3.2,2.4,3.9,4.5c0.6,1.9,1.2,3.9,1.7,5.8
		c1.9,6.7-2.8,17.1-12.5,18.7c-0.8,0.1-1.6,0.2-2.3,0.4c-0.7,0.2-1,0.7-0.8,1.4c0.2,0.6,0.4,1.2,0.7,1.7c1.3,2.6,3.3,4.6,5.7,6.1
		c3.9,2.5,8.1,4.2,12.6,5.4c0.8,0.2,1.6,0.3,2.3,0.6c1.4,0.6,1.7,1.7,0.7,2.9c-0.4,0.5-0.8,0.9-1.3,1.3c-2.9,2.4-5.9,4.8-8.8,7.1
		c-2.1,1.6-3.3,1.7-5.5,0.3c-4.7-2.9-8.1-6.7-9.8-12c-1.2-3.8-2.2-7.6-2.5-11.6c0-0.4-0.1-0.9-0.1-1.3c-0.3-1.6-0.8-2.1-2.4-2.2
		c-1.5-0.1-3-0.1-4.5,0c-2,0.1-2.9,0.9-3,3c-0.1,2.5,0,5.1,0,7.7c0,4,0.3,7.5,0.4,11.5c0,0.4,0,0.7-0.1,1.1c-0.3,1.8-1.2,2.7-3,2.7
		c-3.5,0-7.3,0.1-10.8,0c-0.5,0-1.1-0.1-1.6-0.2c-1.3-0.3-2.2-1.1-2.4-2.4c-0.2-1.3-0.4-2.6-0.4-3.9
		C664.2,979.8,664.2,972.2,664,963.7L664,963.7z M681.9,958.3c0,0.9,0,1.8,0.2,2.6c0.3,1.6,1.1,2.4,2.7,2.3c3.3-0.2,6.5-0.6,9.6-1.8
		c1.9-0.7,3.4-2,4.1-3.9c1-2.8,1.4-5.6,0.7-8.6c-0.4-1.6-1.1-3-2.3-4.1c-3.5-3.2-7.8-4.2-12.5-4.1c-1.3,0-1.9,0.7-2.1,2
		c-0.1,0.7-0.2,1.4-0.2,2.1C682.2,947.1,682,956.1,681.9,958.3L681.9,958.3z"/>
	<path class="st0" d="M725.7,964.7c0-7.7,0-15.3,0-23c0-1,0-1.9,0.1-2.9c0.3-1.7,1.1-2.4,2.8-2.6c0.3,0,0.5,0,0.8,0
		c3.4,0,6.9-0.1,10.3,0c2.9,0.1,3.9,1.2,3.9,4.1c-0.1,11.1-0.1,22.2-0.1,33.3c0,4.9,0.2,9.8,0.3,14.8c0,1-0.1,2.1-0.3,3.1
		c-0.2,1.4-1.1,2.2-2.5,2.3c-4,0.1-7.9,0.2-11.9,0.2c-1.7,0-2.5-0.9-2.9-2.6c-0.2-0.9-0.2-1.7-0.2-2.6c-0.1-7.3-0.2-14.6-0.2-21.9
		C725.7,966.1,725.7,965.4,725.7,964.7L725.7,964.7z"/>
	<path class="st0" d="M770.8,963.4c0,0.8-0.2,1.9,0.8,2.3c0.9,0.3,1.4-0.5,2-1c2.8-2.4,5.6-4.8,8.4-7.2c0.5-0.5,1.1-0.9,1.7-1.2
		c0.9-0.5,1.8-0.1,2.2,0.8c0.2,0.6,0.3,1.2,0.3,1.8c-0.1,2.8-0.2,5.6-0.3,8.4c0,0.4-0.1,0.9-0.2,1.3c-0.4,1.6-1.1,2.3-2.7,2.3
		c-2.2,0.1-4.4-0.1-6.6-0.1c-1.1,0-2.3,0-3.4,0.2c-1.1,0.2-1.7,0.9-1.8,2c-0.1,0.7-0.1,1.4-0.1,2.1c0.1,5,0.1,10,0.2,15
		c0.1,2.5-0.6,3.4-3,3.8c-0.5,0.1-1,0.2-1.6,0.2c-3.2,0-6.3,0.1-9.5,0c-2.4,0-3.2-0.8-3.3-3.2c-0.2-2.8-0.3-5.6-0.4-8.4
		c-0.2-5.2-0.3-10.4-0.5-15.6c0-1.4,0-2.8,0-4.2c0.1-6.8,0.2-13.6,0.3-20.3c0-1.1,0-2.1,0.1-3.2c0.3-2.1,1.2-2.9,3.2-3.2
		c0.2,0,0.4,0,0.5,0c6.5,0.1,13,0.2,19.5,0.3c1.9,0,3.9,0.2,5.8,0.2c4.4,0.1,8.8,0.1,13.2,0.2c0.4,0,0.7,0,1.1,0.1
		c2.3,0.3,3.2,1.2,3.6,3.5c0.1,0.6,0.2,1.2,0.2,1.8c0,4.6,0,9.2,0,13.7c0,0.5,0,1.1-0.1,1.6c-0.4,1.6-1.7,2-3,0.9
		c-0.5-0.5-1-1-1.3-1.6c-2.1-3.5-4.9-6.4-7.9-9.2c-3.6-3.4-8-5.4-12.8-6.4c-3.6-0.8-4.4,0-4.4,3.7
		C771,947.9,770.8,960.2,770.8,963.4L770.8,963.4z"/>
	<path class="st0" d="M826.2,969c0-6.5,0-13,0-19.5c0-1,0-1.9-0.2-2.9c-0.2-1.1-1-1.4-2-0.8c-0.5,0.3-1,0.7-1.5,1.1
		c-4.4,3.6-8.4,7.5-11.8,12c-0.6,0.8-1.3,1.7-2.1,2.4c-1,0.9-2.1,0.5-2.4-0.8c-0.2-0.7-0.2-1.4-0.2-2.1c-0.2-5.5-0.3-10.9-0.4-16.4
		c0-0.5,0-1.1,0-1.6c0.2-2.3,1.2-3.3,3.5-3.5c3.4-0.3,6.8-0.5,10.3-0.5c13.5-0.1,26,0,39.5,0c1.2,0,2.5,0,3.7,0.2
		c1.9,0.3,2.8,1.1,3.1,3c0.1,0.7,0.2,1.4,0.2,2.1c0,5.2,0,10.4,0,15.6c0,1-0.1,2.1-0.4,3.1c-0.4,1.5-1.6,1.9-2.8,0.9
		c-0.6-0.4-1-0.9-1.5-1.5c-3-3.3-6-6.7-9.1-9.9c-1.7-1.8-3.6-3.3-5.5-5c-0.5-0.4-1-0.7-1.6-0.9c-0.6-0.2-1.1,0.1-1.3,0.6
		c-0.2,0.6-0.3,1.2-0.3,1.8c0,5.7,0,11.4,0,17.1c0,6.1,0,12.1,0,18.2c0,1.9,0.2,3.9,0.2,5.8c0,1.4,0,2.8-0.2,4.2
		c-0.2,1.6-1.3,2.4-2.9,2.4c-4.1,0-7.4,0.4-11.5-0.2c-1.4-0.2-2.2-1.1-2.5-2.4c-0.2-1-0.3-2.1-0.3-3.1
		C826.2,982,826.3,975.5,826.2,969L826.2,969L826.2,969z"/>
</g>
<path class="st0" d="M706.8,1056.8c0,1.7-0.1,3.3-0.3,5c-0.2,2.1-0.9,2.8-3,3c-2.4,0.3-4.7,0.4-7.1,0.5c-3.4,0.1-6.9,0-10.3,0
	c-2.8,0.1-4.7-1-5.9-3.6c-2.6-5.7-5.3-11.3-7.9-17c-1.2-2.6-2.2-5.2-3.3-7.8c-0.3-0.7-0.6-1.6-1.5-1.7c-1.1-0.1-1.4,0.9-1.8,1.7
	c-3.9,7.6-7.7,15.2-11.6,22.9c-0.6,1.1-1.1,2.2-1.8,3.2c-0.6,0.7-1.4,1.4-2.2,1.7c-2.6,1-4.9-0.4-5.2-3.1c-0.3-2-0.3-4-0.4-6.1
	c-0.3-5.5-0.5-11.1-0.8-16.6c-0.1-1.2,0-2.5-0.1-3.7c-0.1-6.2-0.1-12.3-0.2-18.5c0-1.8-0.2-3.7-0.3-5.5c0-0.7,0-1.5,0.3-2.1
	c0.3-0.7,0.8-1.5,1.4-1.8c1.9-1.1,3.9-1,5.9-0.4c0.8,0.2,1.3,1,1.4,1.8c0.2,0.9,0.3,1.9,0.3,2.9c0.1,7.4,0.1,14.8,0.3,22.2
	c0,1.9,0.2,3.9,0.4,5.8c0,0.4,0.2,1,0.6,1.1c0.5,0.1,0.9-0.4,1.2-0.8c0.3-0.3,0.5-0.7,0.7-1.1c3.1-5.9,6.1-11.9,8.4-18.2
	c1.4-4,3.1-7.9,4.7-11.8c0.4-1,1-1.9,1.6-2.7c0.9-1.1,2.2-1.2,3.3-0.2c0.6,0.6,1.2,1.3,1.6,2.1c1.3,2.6,2.6,5.2,3.7,7.9
	c3.1,7.9,6.2,15.9,9.3,23.9c0.3,0.9,0.8,1.8,1.3,2.6c0.2,0.4,0.7,0.2,0.8-0.2c0.2-0.8,0.3-1.6,0.3-2.3c-0.1-4.7-0.2-9.3-0.4-14
	c-0.2-5.4-0.4-10.7-0.6-16.1c0-0.5,0-1.1,0.1-1.6c0.2-1.6,0.9-2.5,2.5-2.6c3.4-0.2,6.9-0.4,10.3-0.3c2.3,0,3.3,1.1,3.6,3.4
	c0.1,0.7,0.2,1.4,0.2,2.1c0.2,6.2,0.4,12.5,0.6,18.7c0.2,4.8,0.3,9.5,0.5,14.2C707.1,1044.7,706.9,1053.3,706.8,1056.8L706.8,1056.8
	z"/>
<path class="st0" d="M754.7,1065c-1.1,0-2.4,0-3.7,0c-1.6,0-2.9-0.8-3.5-2.3c-0.4-0.8-0.7-1.6-1-2.4c-1.2-3.2-2.4-6.4-3.5-9.7
	c-0.3-0.8-0.6-1.7-0.9-2.5c-1.2-2.8-1.9-3.2-5.1-3c-2.8,0.2-5.6,0.3-8.4,0.3c-2.3,0-3.6,0.9-4.4,3c-1.3,3.5-3.4,8.7-4.8,12.2
	c-0.4,0.9-0.7,1.8-1.3,2.6c-1.1,1.6-3.2,2.4-5.1,2c-1.4-0.3-2.2-1.2-2-2.7c0.2-1.2,0.6-2.4,1.1-3.5c3.3-8.3,7.5-18.2,10.6-26.7
	c2.4-6.7,5.2-13.3,8.4-19.7c0.7-1.3,1.2-2.8,1.8-4.1c0.7-1.7,2-2.6,3.9-2.8c2.4-0.2,4.7-0.4,7.1-0.6c2.2-0.2,3.7,0.8,4.6,2.8
	c0.3,0.7,0.6,1.5,0.8,2.2c1.4,6.8,4.1,13.3,6,20c0.9,3.2,1.9,6.4,3,9.6c0.8,2.5,1.9,4.9,2.7,7.4c1.4,4.4,2.9,8.9,4.1,13.4
	c0.6,2.3-0.3,3.5-2.7,3.8C759.7,1064.6,757.3,1064.8,754.7,1065L754.7,1065z M732.7,1037.8c1.1,0,1.9,0,2.8-0.1c2-0.3,2.5-1,2-3.1
	c-0.7-2.4-1.4-4.7-2.2-7c-0.2-0.6-0.5-1.1-0.8-1.6c-0.4-0.6-1.1-0.6-1.5,0c-0.2,0.3-0.4,0.6-0.5,0.9c-1,2.7-2.1,5.4-3.1,8.1
	c-0.1,0.3-0.2,0.7-0.3,1c-0.1,1,0.4,1.7,1.4,1.8C731.3,1037.9,732.1,1037.8,732.7,1037.8z"/>
<path class="st0" d="M828.3,1034.8c0-5.3,0-10.7,0-16c0-3.3,0.1-6.5,0.2-9.8c0.1-2.9,1.1-3.9,3.9-4c2.6-0.1,5.3,0.1,7.9,0.2
	c5.1,0.2,10.2,0.4,15.3,0.5c4.8,0.1,9.7,0.1,14.5,0c3.7-0.1,5.2,1.1,5.3,5.1c0.2,5,0.1,10,0.1,14.9c0,1.1-0.1,2.3-1.4,2.7
	c-1.2,0.4-2-0.5-2.6-1.4c-1-1.4-1.8-2.9-3-4.1c-2.5-2.6-5-5.2-7.8-7.3c-3.5-2.7-7.7-4.3-12-5.5c-1.9-0.5-2.7,0.1-2.9,2.1
	c-0.1,0.6-0.1,1.3-0.1,1.9c0,6,0,11.9,0,17.9c0,0.7,0,1.5,0.1,2.2c0.2,1.1,1,1.5,1.9,0.8c0.7-0.5,1.4-1.1,2.1-1.7
	c2.1-1.8,4.1-3.7,6.2-5.5c0.5-0.5,1.1-1,1.6-1.4c1.9-1.3,3.3-0.7,3.4,1.6c0.1,1.5,0,3.1,0,4.6c-0.1,1.5-0.2,3.1-0.3,4.6
	c-0.2,2.8-1,3.6-3.8,3.7c-2.3,0-4.6-0.1-6.9-0.1c-0.4,0-0.9-0.1-1.3,0c-1.6,0.1-2.4,0.9-2.7,2.5c-0.1,0.5-0.1,1.1-0.1,1.6
	c0,3.8,0,7.6,0,11.4c0,0.3,0,0.5,0,0.8c0.1,2.4,0.7,2.9,2.9,2.8c2.9-0.2,5.7-1,8.3-2.5c5.5-3.3,10.1-7.5,13.3-13.3
	c0.6-1,1.2-2,1.8-3c0.3-0.5,0.7-1.1,1.1-1.5c0.8-0.8,1.9-0.6,2.3,0.5c0.2,0.6,0.4,1.2,0.4,1.8c0.2,5.6,0.4,11.2,0.6,16.8
	c0,0.9,0,1.8-0.2,2.7c-0.2,1.6-1.1,2.7-2.7,3c-1.1,0.2-2.3,0.4-3.4,0.4c-5,0-10,0-15.1,0c-7,0-14.1,0.1-21.1,0.2
	c-0.9,0-1.8,0-2.6-0.1c-1.7-0.2-2.5-1-2.9-2.7c-0.2-0.8-0.2-1.6-0.2-2.4C828.4,1051.5,828.4,1043.1,828.3,1034.8L828.3,1034.8
	L828.3,1034.8z"/>
<path class="st0" d="M781.8,1061.1c-3.2-6.1-6-12.4-8.8-18.7c-4.5-10-9.2-20-13.8-30.1c-0.3-0.6-0.6-1.3-0.9-1.9
	c-0.8-2-0.4-3.3,1.3-4.7c0.3-0.2,0.6-0.4,0.9-0.6c3.1-2,5-1.6,6.6,1.7c3.1,6.5,6.2,13.1,9.2,19.6c3.4,7.3,6.7,14.6,10,21.9
	c0.3,0.6,0.5,1.1,0.8,1.6c0.6,1,1.4,0.9,2-0.1c0.2-0.3,0.3-0.6,0.4-1c2-5.1,3.9-10.2,5.9-15.3c1.4-3.6,2.7-7.3,4.1-10.9
	c1.2-3.4,2.4-6.8,3.6-10.2c0.6-1.6,1.2-3.1,1.8-4.7c0.9-2,2.5-2.8,4.6-2.8c4.4,0,7.5-0.2,11.1,0.3c0.5,0.1,1,0.3,1.5,0.5
	c1.3,0.7,1.8,1.6,1.5,3.1c-0.2,0.9-0.8,3-1.2,3.9c-2.6,7.2-4.9,14.6-8.1,21.5c-0.9,2-1.6,4.1-2.4,6.2c-2.8,6.9-5.7,13.9-8.5,20.8
	c-0.2,0.6-0.5,1.1-0.8,1.7c-0.7,1.3-1.9,2.1-3.4,2.2c-1.1,0-2.3,0-3.4,0c0,0-5.6-0.3-8.4-0.4
	C784.7,1064.8,783.1,1063.5,781.8,1061.1"/>
<path class="st0" d="M628.4,1065c-1.1,0-2.4,0-3.7,0c-1.6,0-2.9-0.8-3.5-2.3c-0.4-0.8-0.7-1.6-1-2.4c-1.2-3.2-2.4-6.4-3.5-9.7
	c-0.3-0.8-0.6-1.7-0.9-2.5c-1.2-2.8-1.9-3.2-5.1-3c-2.8,0.2-5.6,0.3-8.4,0.3c-2.3,0-3.6,0.9-4.4,3c-1.3,3.5-3.4,8.7-4.8,12.2
	c-0.4,0.9-0.7,1.8-1.3,2.6c-1.1,1.6-3.2,2.4-5.1,2c-1.4-0.3-2.2-1.2-2-2.7c0.2-1.2,0.6-2.4,1.1-3.5c3.3-8.3,7.5-18.2,10.6-26.7
	c2.4-6.7,5.2-13.3,8.4-19.7c0.7-1.3,1.2-2.8,1.8-4.1c0.7-1.7,2-2.6,3.9-2.8c2.4-0.2,4.7-0.4,7.1-0.6c2.2-0.2,3.7,0.8,4.6,2.8
	c0.3,0.7,0.6,1.5,0.8,2.2c1.4,6.8,4.1,13.3,6,20c0.9,3.2,1.9,6.4,3,9.6c0.8,2.5,1.9,4.9,2.7,7.4c1.4,4.4,2.9,8.9,4.1,13.4
	c0.6,2.3-0.3,3.5-2.7,3.8C633.4,1064.6,631,1064.8,628.4,1065L628.4,1065z M606.5,1037.8c1.1,0,1.9,0,2.8-0.1c2-0.3,2.5-1,2-3.1
	c-0.7-2.4-1.4-4.7-2.2-7c-0.2-0.6-0.5-1.1-0.8-1.6c-0.4-0.6-1.1-0.6-1.5,0c-0.2,0.3-0.4,0.6-0.5,0.9c-1,2.7-2.1,5.4-3.1,8.1
	c-0.1,0.3-0.2,0.7-0.3,1c-0.1,1,0.4,1.7,1.4,1.8C605.1,1037.9,605.9,1037.8,606.5,1037.8z"/>
<g>
	<g>
		<path class="st0" d="M604.3,349.5c0-4.8,0-9.7,0-14.5c0-2.9,0.4-3.3,3.3-3.3c4.6,0,9.1,0,13.7,0.1c3.4,0.1,6.6,0.9,9.9,1.8
			c2.4,0.7,4.2,2.2,5.5,4.2c1.6,2.3,2.4,4.8,2.5,7.6c0,2.3,0.1,4.6,0,6.9c-0.2,4.1-1.5,7.9-3.9,11.3c-0.7,1.1-1.7,1.9-2.8,2.6
			c-3.3,2.2-7,3.3-10.9,3.5c-4.5,0.2-9,0.1-13.5,0.2c-0.4,0-0.8,0-1.2-0.1c-1.6-0.2-2.2-0.8-2.3-2.5c-0.1-0.9-0.2-1.7-0.2-2.6
			c0-3.5,0-6.9-0.1-10.4C604.3,352.7,604.3,351.1,604.3,349.5L604.3,349.5L604.3,349.5z M616.1,349.8c0,3.9,0,7.7,0,11.6
			c0,1,0.1,2,0.2,2.9c0,0.6,0,1.2,0.6,1.5c0.7,0.4,1.2-0.3,1.7-0.6c3.7-2.8,6.3-6.4,8.3-10.5c0.6-1.2,1.1-2.6,1.2-3.9
			c0.5-4.3-0.2-8.5-2.1-12.4c-0.5-1-1.2-1.8-2.2-2.4c-1.8-1-3.8-1.4-5.8-1.6c-1-0.1-1.5,0.4-1.7,1.4c-0.1,0.6-0.1,1.1-0.1,1.7
			C616.1,341.6,616.1,345.7,616.1,349.8z"/>
		<path class="st0" d="M643.8,349.8c0.1-4.8,0.1-10,0.2-15.2c0-0.2,0-0.3,0-0.5c0.1-1.8,0.7-2.3,2.5-2.4c2,0,4,0,6.1,0
			c2.8,0,5.7,0.1,8.5,0.1c2.7,0,5.4,0.3,8.1,0.7c1.3,0.2,2.6,0.6,3.8,1.2c1.2,0.7,2.1,1.6,2.5,2.9c0.4,1.3,0.8,2.5,1.1,3.8
			c1.2,4.4-1.8,11.2-8.2,12.2c-0.5,0.1-1,0.1-1.5,0.3c-0.4,0.1-0.7,0.5-0.5,0.9c0.1,0.4,0.3,0.8,0.4,1.1c0.9,1.7,2.1,3,3.7,4
			c2.5,1.7,5.3,2.8,8.2,3.5c0.5,0.1,1,0.2,1.5,0.4c0.9,0.4,1.1,1.1,0.5,1.9c-0.2,0.3-0.6,0.6-0.9,0.8c-1.9,1.6-3.8,3.1-5.8,4.7
			c-1.4,1.1-2.2,1.1-3.6,0.2c-3.1-1.9-5.3-4.4-6.4-7.9c-0.8-2.5-1.4-5-1.6-7.6c0-0.3,0-0.6-0.1-0.9c-0.2-1.1-0.5-1.4-1.6-1.5
			c-1-0.1-2-0.1-2.9,0c-1.3,0.1-1.9,0.6-1.9,1.9c-0.1,1.7,0,3.3,0,5c0,2.6,0.2,4.9,0.2,7.5c0,0.2,0,0.5,0,0.7
			c-0.2,1.2-0.8,1.8-2,1.8c-2.3,0-4.8,0-7.1,0c-0.3,0-0.7-0.1-1-0.1c-0.9-0.2-1.5-0.7-1.6-1.6c-0.1-0.9-0.2-1.7-0.3-2.6
			C643.9,360.3,643.9,355.3,643.8,349.8L643.8,349.8z M655.5,346.2c0,0.6,0,1.2,0.1,1.7c0.2,1.1,0.7,1.5,1.8,1.5
			c2.1-0.1,4.3-0.4,6.3-1.2c1.2-0.5,2.2-1.3,2.7-2.6c0.7-1.8,0.9-3.7,0.5-5.6c-0.2-1-0.7-2-1.5-2.7c-2.3-2.1-5.1-2.8-8.2-2.7
			c-0.8,0-1.2,0.5-1.4,1.3c-0.1,0.4-0.1,0.9-0.1,1.4C655.7,338.8,655.6,344.7,655.5,346.2L655.5,346.2z"/>
		<path class="st0" d="M684.2,350.4c0-5,0-10,0-15.1c0-0.6,0-1.3,0.1-1.9c0.2-1.1,0.7-1.6,1.8-1.7c0.2,0,0.3,0,0.5,0
			c2.2,0,4.5,0,6.7,0c1.9,0,2.5,0.8,2.5,2.7c0,7.3-0.1,14.5-0.1,21.8c0,3.2,0.1,6.5,0.2,9.7c0,0.7-0.1,1.4-0.2,2.1
			c-0.2,0.9-0.7,1.5-1.7,1.5c-2.6,0.1-5.2,0.2-7.8,0.1c-1.1,0-1.6-0.6-1.9-1.7c-0.1-0.6-0.1-1.1-0.2-1.7c-0.1-4.8-0.1-9.6-0.2-14.4
			C684.2,351.3,684.2,350.8,684.2,350.4L684.2,350.4z"/>
		<path class="st0" d="M713.8,349.5c0,0.6-0.2,1.3,0.5,1.5c0.6,0.2,0.9-0.3,1.3-0.6c1.8-1.6,3.7-3.2,5.5-4.7
			c0.3-0.3,0.7-0.6,1.1-0.8c0.6-0.3,1.2-0.1,1.4,0.5c0.1,0.4,0.2,0.8,0.2,1.2c-0.1,1.8-0.1,3.7-0.2,5.5c0,0.3-0.1,0.6-0.1,0.9
			c-0.3,1.1-0.7,1.5-1.8,1.5c-1.4,0.1-2.9,0-4.3,0c-0.7,0-1.5,0-2.2,0.1c-0.7,0.1-1.1,0.6-1.2,1.3c-0.1,0.5-0.1,0.9-0.1,1.4
			c0,3.3,0.1,6.6,0.2,9.9c0,1.6-0.4,2.2-2,2.5c-0.3,0.1-0.7,0.1-1,0.1c-2.1,0-4.2,0-6.2,0c-1.6,0-2.1-0.6-2.2-2.1
			c-0.1-1.8-0.2-3.7-0.2-5.5c-0.1-3.4-0.2-6.8-0.3-10.2c0-0.9,0-1.8,0-2.8c0.1-4.4,0.1-8.9,0.2-13.3c0-0.7,0-1.4,0.1-2.1
			c0.2-1.4,0.8-1.9,2.1-2.1c0.1,0,0.2,0,0.3,0c4.3,0.1,8.5,0.1,12.8,0.2c1.3,0,2.5,0.1,3.8,0.1c2.9,0.1,5.8,0.1,8.7,0.1
			c0.2,0,0.5,0,0.7,0c1.5,0.2,2.1,0.8,2.4,2.3c0.1,0.4,0.1,0.8,0.1,1.2c0,3,0,6,0,9c0,0.3,0,0.7-0.1,1c-0.2,1.1-1.1,1.3-1.9,0.6
			c-0.3-0.3-0.6-0.7-0.9-1.1c-1.4-2.3-3.2-4.2-5.2-6c-2.4-2.2-5.3-3.5-8.4-4.2c-2.4-0.5-2.9,0-2.9,2.4
			C713.9,339.4,713.8,347.4,713.8,349.5L713.8,349.5z"/>
		<path class="st0" d="M750.1,353.2c0-4.3,0-8.5,0-12.8c0-0.6,0-1.3-0.1-1.9c-0.1-0.7-0.7-0.9-1.3-0.5c-0.3,0.2-0.7,0.5-1,0.7
			c-2.9,2.4-5.5,4.9-7.7,7.9c-0.4,0.5-0.9,1.1-1.4,1.5c-0.6,0.6-1.4,0.3-1.6-0.5c-0.1-0.4-0.1-0.9-0.1-1.4
			c-0.1-3.6-0.2-7.1-0.3-10.7c0-0.3,0-0.7,0-1c0.2-1.5,0.8-2.2,2.3-2.3c2.2-0.2,4.5-0.4,6.7-0.4c8.8,0,17.1,0,25.9,0
			c0.8,0,1.6,0,2.4,0.1c1.3,0.2,1.8,0.7,2.1,2c0.1,0.4,0.1,0.9,0.1,1.4c0,3.4,0,6.8,0,10.2c0,0.7-0.1,1.4-0.3,2.1
			c-0.2,1-1,1.2-1.9,0.6c-0.4-0.3-0.7-0.6-1-1c-2-2.2-3.9-4.4-6-6.5c-1.1-1.2-2.4-2.2-3.6-3.3c-0.3-0.3-0.7-0.4-1-0.6
			c-0.4-0.1-0.7,0.1-0.8,0.4c-0.1,0.4-0.2,0.8-0.2,1.2c0,3.7,0,7.5,0,11.2c0,4,0,8,0,11.9c0,1.3,0.1,2.5,0.1,3.8
			c0,0.9,0,1.8-0.1,2.8c-0.2,1-0.9,1.5-1.9,1.5c-2.7,0-4.8,0.2-7.5-0.1c-0.9-0.1-1.5-0.7-1.6-1.6c-0.1-0.7-0.2-1.4-0.2-2.1
			C750.1,361.7,750.1,357.5,750.1,353.2L750.1,353.2L750.1,353.2z"/>
	</g>
	<g>
		<path class="st0" d="M851.6,365.7c0,1.1-0.1,2.2-0.2,3.3c-0.2,1.4-0.6,1.8-2,2c-1.5,0.2-3.1,0.3-4.7,0.3c-2.3,0-4.5,0-6.8,0
			c-1.8,0-3.1-0.7-3.9-2.3c-1.7-3.7-3.5-7.4-5.2-11.1c-0.8-1.7-1.4-3.4-2.1-5.1c-0.2-0.5-0.4-1.1-1-1.1c-0.7-0.1-0.9,0.6-1.2,1.1
			c-2.5,5-5.1,10-7.6,15c-0.4,0.7-0.7,1.5-1.2,2.1c-0.4,0.5-0.9,0.9-1.5,1.1c-1.7,0.6-3.2-0.2-3.4-2c-0.2-1.3-0.2-2.6-0.2-4
			c-0.2-3.6-0.4-7.3-0.5-10.9c0-0.8,0-1.6,0-2.4c0-4-0.1-8.1-0.2-12.1c0-1.2-0.1-2.4-0.2-3.6c0-0.5,0-1,0.2-1.4
			c0.2-0.5,0.5-1,0.9-1.2c1.2-0.7,2.5-0.6,3.9-0.2c0.5,0.2,0.8,0.6,0.9,1.2c0.1,0.6,0.2,1.3,0.2,1.9c0.1,4.8,0.1,9.7,0.2,14.5
			c0,1.3,0.1,2.5,0.2,3.8c0,0.2,0.1,0.7,0.4,0.7c0.3,0.1,0.6-0.3,0.8-0.5c0.2-0.2,0.3-0.5,0.4-0.7c2-3.9,4-7.8,5.5-12
			c0.9-2.6,2-5.2,3.1-7.7c0.3-0.6,0.6-1.2,1.1-1.8c0.6-0.7,1.4-0.8,2.1-0.1c0.4,0.4,0.8,0.9,1,1.4c0.8,1.7,1.7,3.4,2.4,5.2
			c2.1,5.2,4,10.4,6.1,15.7c0.2,0.6,0.5,1.2,0.9,1.7c0.2,0.2,0.5,0.1,0.5-0.1c0.1-0.5,0.2-1,0.2-1.5c-0.1-3.1-0.1-6.1-0.2-9.2
			c-0.1-3.5-0.3-7-0.4-10.5c0-0.3,0-0.7,0-1c0.1-1.1,0.6-1.6,1.6-1.7c2.2-0.1,4.5-0.2,6.7-0.2c1.5,0,2.1,0.7,2.3,2.3
			c0.1,0.5,0.1,0.9,0.1,1.4c0.1,4.1,0.3,8.2,0.4,12.3c0.1,3.1,0.2,6.2,0.3,9.3C851.7,357.8,851.6,363.5,851.6,365.7L851.6,365.7z"/>
		<path class="st0" d="M882.9,371.1c-0.7,0-1.6,0-2.4,0c-1.1,0-1.9-0.5-2.3-1.5c-0.2-0.5-0.5-1.1-0.7-1.6c-0.8-2.1-1.5-4.2-2.3-6.3
			c-0.2-0.5-0.4-1.1-0.6-1.6c-0.8-1.8-1.3-2.1-3.3-2c-1.8,0.1-3.7,0.2-5.5,0.2c-1.5,0-2.4,0.6-2.9,2c-0.9,2.3-2.2,5.7-3.1,8
			c-0.2,0.6-0.5,1.2-0.8,1.7c-0.7,1.1-2.1,1.6-3.4,1.3c-0.9-0.2-1.4-0.8-1.3-1.7c0.1-0.8,0.4-1.6,0.7-2.3c2.2-5.5,4.9-12,6.9-17.5
			c1.6-4.4,3.4-8.7,5.5-12.9c0.4-0.9,0.8-1.8,1.2-2.7c0.5-1.1,1.3-1.7,2.5-1.8c1.6-0.2,3.1-0.3,4.7-0.4c1.4-0.1,2.5,0.5,3,1.8
			c0.2,0.5,0.4,1,0.5,1.5c0.9,4.5,2.7,8.7,3.9,13.1c0.6,2.1,1.3,4.2,2,6.3c0.5,1.6,1.2,3.2,1.8,4.9c0.9,2.9,1.9,5.8,2.7,8.8
			c0.4,1.5-0.2,2.3-1.8,2.5C886.2,370.9,884.7,371,882.9,371.1L882.9,371.1z M868.5,353.3c0.7,0,1.3,0,1.8-0.1
			c1.3-0.2,1.7-0.7,1.3-2c-0.4-1.5-0.9-3.1-1.4-4.6c-0.1-0.4-0.3-0.7-0.5-1.1c-0.2-0.4-0.7-0.4-1,0c-0.1,0.2-0.2,0.4-0.3,0.6
			c-0.7,1.8-1.4,3.5-2,5.3c-0.1,0.2-0.1,0.4-0.2,0.7c-0.1,0.7,0.2,1.1,0.9,1.2C867.6,353.3,868.2,353.3,868.5,353.3z"/>
		<path class="st0" d="M931.2,351.3c0-3.5,0-7,0-10.5c0-2.1,0.1-4.3,0.2-6.4c0.1-1.9,0.7-2.6,2.6-2.6c1.7,0,3.5,0.1,5.2,0.1
			c3.3,0.1,6.7,0.3,10,0.3c3.2,0.1,6.3,0.1,9.5,0c2.4,0,3.4,0.7,3.5,3.3c0.1,3.3,0.1,6.5,0.1,9.8c0,0.7-0.1,1.5-0.9,1.8
			c-0.8,0.3-1.3-0.3-1.7-0.9c-0.7-0.9-1.2-1.9-2-2.7c-1.6-1.7-3.3-3.4-5.1-4.8c-2.3-1.8-5.1-2.8-7.9-3.6c-1.2-0.3-1.7,0.1-1.9,1.3
			c-0.1,0.4,0,0.8,0,1.2c0,3.9,0,7.8,0,11.7c0,0.5,0,1,0.1,1.4c0.1,0.8,0.6,1,1.3,0.5c0.5-0.3,0.9-0.7,1.3-1.1
			c1.4-1.2,2.7-2.4,4-3.6c0.3-0.3,0.7-0.6,1.1-0.9c1.3-0.9,2.1-0.5,2.2,1.1c0,1,0,2,0,3c0,1-0.1,2-0.2,3c-0.1,1.8-0.7,2.4-2.5,2.4
			c-1.5,0-3,0-4.5-0.1c-0.3,0-0.6,0-0.9,0c-1.1,0.1-1.6,0.6-1.7,1.6c-0.1,0.3-0.1,0.7-0.1,1.1c0,2.5,0,5,0,7.5c0,0.2,0,0.4,0,0.5
			c0.1,1.6,0.4,1.9,1.9,1.8c1.9-0.1,3.8-0.6,5.4-1.6c3.6-2.2,6.6-4.9,8.7-8.7c0.4-0.7,0.8-1.3,1.2-2c0.2-0.3,0.5-0.7,0.7-1
			c0.5-0.5,1.2-0.4,1.5,0.3c0.1,0.4,0.2,0.8,0.2,1.2c0.1,3.7,0.3,7.3,0.4,11c0,0.6,0,1.2-0.1,1.8c-0.2,1-0.8,1.7-1.8,2
			c-0.7,0.2-1.5,0.2-2.2,0.2c-3.3,0-6.6,0-9.9,0c-4.6,0-9.2,0.1-13.8,0.1c-0.6,0-1.2,0-1.7-0.1c-1.1-0.1-1.7-0.6-1.9-1.8
			c-0.1-0.5-0.1-1.1-0.1-1.6C931.3,362.3,931.2,356.8,931.2,351.3L931.2,351.3L931.2,351.3z"/>
		<path class="st0" d="M900.7,368.6c-2.1-4-3.9-8.1-5.8-12.2c-3-6.6-6-13.1-9-19.7c-0.2-0.4-0.4-0.8-0.6-1.3
			c-0.5-1.3-0.3-2.2,0.8-3.1c0.2-0.1,0.4-0.3,0.6-0.4c2.1-1.3,3.2-1,4.3,1.1c2.1,4.3,4.1,8.6,6,12.9c2.2,4.8,4.4,9.6,6.5,14.4
			c0.2,0.4,0.3,0.7,0.6,1.1c0.4,0.6,0.9,0.6,1.3-0.1c0.1-0.2,0.2-0.4,0.3-0.6c1.3-3.3,2.6-6.7,3.9-10c0.9-2.4,1.8-4.8,2.7-7.1
			c0.8-2.2,1.6-4.5,2.4-6.7c0.4-1,0.8-2.1,1.2-3.1c0.6-1.3,1.6-1.8,3-1.8c2.9,0,4.9-0.2,7.3,0.2c0.3,0,0.7,0.2,1,0.3
			c0.8,0.4,1.2,1.1,1,2c-0.1,0.6-0.5,2-0.8,2.6c-1.7,4.7-3.2,9.5-5.3,14.1c-0.6,1.3-1,2.7-1.6,4c-1.9,4.6-3.7,9.1-5.6,13.6
			c-0.2,0.4-0.3,0.7-0.5,1.1c-0.5,0.9-1.2,1.4-2.2,1.4c-0.7,0-1.5,0-2.3,0c0,0-3.7-0.2-5.5-0.2C902.6,371,901.5,370.1,900.7,368.6"
			/>
		<path class="st0" d="M800.2,371.1c-0.7,0-1.6,0-2.4,0c-1.1,0-1.9-0.5-2.3-1.5c-0.2-0.5-0.5-1.1-0.7-1.6c-0.8-2.1-1.5-4.2-2.3-6.3
			c-0.2-0.5-0.4-1.1-0.6-1.6c-0.8-1.8-1.3-2.1-3.3-2c-1.8,0.1-3.7,0.2-5.5,0.2c-1.5,0-2.4,0.6-2.9,2c-0.9,2.3-2.2,5.7-3.1,8
			c-0.2,0.6-0.5,1.2-0.8,1.7c-0.7,1.1-2.1,1.6-3.4,1.3c-0.9-0.2-1.4-0.8-1.3-1.7c0.1-0.8,0.4-1.6,0.7-2.3c2.2-5.5,4.9-12,6.9-17.5
			c1.6-4.4,3.4-8.7,5.5-12.9c0.4-0.9,0.8-1.8,1.2-2.7c0.5-1.1,1.3-1.7,2.5-1.8c1.6-0.2,3.1-0.3,4.7-0.4c1.4-0.1,2.5,0.5,3,1.8
			c0.2,0.5,0.4,1,0.5,1.5c0.9,4.5,2.7,8.7,3.9,13.1c0.6,2.1,1.3,4.2,2,6.3c0.5,1.6,1.2,3.2,1.8,4.9c0.9,2.9,1.9,5.8,2.7,8.8
			c0.4,1.5-0.2,2.3-1.8,2.5C803.5,370.9,801.9,371,800.2,371.1L800.2,371.1z M785.8,353.3c0.7,0,1.3,0,1.8-0.1
			c1.3-0.2,1.7-0.7,1.3-2c-0.4-1.5-0.9-3.1-1.4-4.6c-0.1-0.4-0.3-0.7-0.5-1.1c-0.2-0.4-0.7-0.4-1,0c-0.1,0.2-0.2,0.4-0.3,0.6
			c-0.7,1.8-1.4,3.5-2,5.3c-0.1,0.2-0.1,0.4-0.2,0.7c-0.1,0.7,0.2,1.1,0.9,1.2C784.9,353.3,785.4,353.3,785.8,353.3z"/>
	</g>
</g>
</svg>
