<?xml version="1.0" encoding="utf-8"?>
<!-- Generator: Adobe Illustrator 27.3.1, SVG Export Plug-In . SVG Version: 6.00 Build 0)  -->
<svg version="1.1" id="Travel_Untamed" xmlns="http://www.w3.org/2000/svg" xmlns:xlink="http://www.w3.org/1999/xlink" x="0px"
	 y="0px" viewBox="0 0 432 322.9" style="enable-background:new 0 0 432 322.9;" xml:space="preserve">
<style type="text/css">
	.st0{fill:#FFFFFF;}
</style>
<g>
	<g>
		<path d="M431.9,150.6c-1.8,8.6-10.5,37.4-47.1,42.1c-31.5,4.1-56.4-14-60.7-17.3c-0.4-0.3-1-0.4-1.5-0.2l-9.3,3.7
			c-1,0.4-1.3,1.8-0.4,2.5c1.6,1.5,3.1,3.2,4.3,5.2c10,16.8,13.2,39.7,1.7,65.7c-0.3,0.6,0.2,1.4,0.9,1.3c4.8-0.4,19.4-1.7,25.6-2.2
			c1.3-0.1,2.1-1.5,1.6-2.7c-0.3-0.7-0.7-1.5-1-2.2c-0.9-2.2-1.8-4.5-2.5-6.9c-0.3-0.9-1.2-1.3-2-0.9c-2.1,0.9-6.2,2.7-11.4,4.3
			c-1.2,0.4-2.3-0.7-1.9-1.9c1.5-5.6,2.5-11.1,2.8-16.5c0.1-0.7,0.6-1.3,1.4-1.4l21-1.8c0.8-0.1,1.5,0.5,1.6,1.4
			c0.7,8.2,6.9,47.3,58.4,43.7c0.9-0.1,1.6,0.6,1.6,1.5V292c0,0.9-0.8,1.6-1.7,1.5c-2.2-0.3-6.2-1-11.3-2.4
			c-9.1-2.5-21.5-7.1-32.9-15.5c-1.7-1.3-3.5-2.7-5.2-4.2c-1.3-1.1-3.2,0.4-2.3,1.8c6.6,11.4,19.6,22.9,45.2,22.9
			c2.1,0,4.3-0.1,6.6-0.2c0.9-0.1,1.6,0.6,1.6,1.5v24.1c0,0.9-0.8,1.6-1.7,1.5c-9.6-1.4-56.6-10.5-69.8-53.9
			c-0.2-0.8-1.1-1.2-1.9-0.9c-4.6,2.1-19.2,8.2-34.6,8.2c-16.7,0-34.1-7.2-40.3-34.6c-0.4-1.7-2.9-1.3-2.7,0.4
			c0.2,2,0.5,4.2,0.9,6.4c0.2,1.2-1,2.1-2,1.6c-2.6-1.2-7.1-2.6-14-2.6c-7.7,0-18.3,1.7-32.4,7.5c-23,9.4-56,21.4-92.6,21.4
			c-20.1,0-41.3-3.6-62.5-13.3c-0.6-0.3-1.3-0.1-1.7,0.3l-23.8,25.9c-0.3,0.3-0.4,0.6-0.4,1v25.6c0,0.8-0.7,1.5-1.5,1.5l-32.3-0.3
			c-1.2,0-1.9-1.4-1.2-2.4l59.8-80.3c0.5-0.7,1.5-0.8,2.1-0.3c2.8,2.2,10.7,7.5,23.5,10.6c0.6,0.2,1.2-0.1,1.6-0.6l9.6-12.9
			c0.5-0.7,1.5-0.8,2.1-0.3c1.1,0.9,3.1,2.3,5.9,3.8c1.2,0.7,2.6-0.5,2.1-1.8c-5.7-14-11.1-35.9,1.8-50.9
			c14.5-16.9,18.1-31,18.9-37.8c0.2-1.3-1.3-2.1-2.2-1.3c-4.1,3.6-10.5,4.4-17.1,4.4c-0.6,0-1.2,0-1.9,0h-0.3
			c-7.7,0-14,4.7-15.4,5.9c-0.2,0.1-0.3,0.3-0.4,0.5l-4.2,9.1c-0.2,0.5-0.7,0.8-1.2,0.9l-14.2,1.2c-0.5,0.1-1.1-0.2-1.4-0.6
			L59.1,149c-0.4-0.5-0.4-1.3,0-1.8l25.3-33c0.6-0.8,1.9-0.8,2.5,0.1l0.9,1.5c0.3,0.5,0.8,0.7,1.3,0.7h6c0.4,0,0.8-0.2,1-0.4
			l5.2-4.9c0.7-0.6,1.8-0.5,2.3,0.3l2.7,4.3c0.3,0.5,0.8,0.7,1.3,0.7h9.1c0.3,0,0.6-0.1,0.9-0.3l12.6-9.7c0.3-0.2,0.6-0.3,0.9-0.3
			h5.9c1.8,0,3.5-1,4.4-2.5l0.2-0.3H95.7c-1.2,0-1.9-1.4-1.2-2.4l1.7-2.3c0.2-0.3,0.3-0.6,0.3-0.9V80.5c0-1.3,1.5-2,2.5-1.1l7.8,7.1
			c1,0.9,2.5,0.2,2.5-1.1V74.1c0-1.3,1.5-2,2.5-1.1l8.6,7.8c0.3,0.3,0.8,0.4,1.2,0.4c1.1-0.1,3.6-0.4,7.1-0.4
			c17.9,0,60.9,7,65.6,73.6c0.1,0.6-0.3,1.3-0.8,1.6c-5.5,3.1-11.3,5.2-16.4,6.7c-0.1,0-0.1,0-0.2,0.1c-0.2,0.1-0.3,0.3-0.3,0.5
			c0,0.3,0.3,0.5,0.6,0.5v0c10.2-1.8,17.1-3.9,17.1-3.9s47.5-11.4,57.2-81.5c0.1-0.5,0.3-0.9,0.8-1.1L393.7,0.2
			c1.2-0.6,2.5,0.5,2.2,1.7c-2.2,7.2-5.9,12.6-9.6,16.5c-0.9,1-0.1,2.4,1,2.4c0.2,0,0.4,0,0.6-0.1c1.1-0.5,2.3,0.6,1.9,1.7
			c-3.3,9.4-8.2,15.4-12,18.9c-0.7,0.6,0,1.7,0.9,1.3l2.7-1.2c1.4-0.6,2.8,0.7,2.3,2.1c-3.6,10.2-8.8,16.1-12.4,19.6
			c-0.6,0.5,0.1,1.5,0.8,1.1l3.4-1.8c1.2-0.7,2.6,0.5,2.1,1.8c-3.9,11-9.1,16.7-12.8,20.1c-0.5,0.4,0.1,1.2,0.6,0.9l4.7-2.5
			c1.1-0.6,2.2,0.5,1.9,1.6c-4.2,13.3-13.2,22.1-23.4,26.3l-51.4,19.5c-0.4,0.1-0.7,0.5-0.9,0.8c-2,5-18.9,41.3-56.9,63.9
			c-0.6,0.4-0.1,1.2,0.5,1c6.7-3,17-8.5,27.1-17.2c5.3-4.6,12.1-7.1,19-7.1c1.8,0,3.6,0.2,5.3,0.5c2.9,0.5,6,1.3,9,2.4
			c0.5,0.2,1.2,0,1.6-0.4l20.7-21.6c0.4-0.5,1.1-0.6,1.7-0.4c6.6,2.9,47.9,18.7,105.6-3.1C431.1,148.6,432.2,149.5,431.9,150.6z"/>
		<g>
			<path d="M79.9,278.1l-7.3,7.9c-0.3,0.4-0.5,0.8-0.5,1.3v28.5c0,1.1-0.9,2-2,1.9l-29.9-0.3l-1.3,0c-1.6,0-2.5-1.8-1.6-3l2.8-4.1
				l26.3-38.1c0.5-0.7,1.5-1,2.3-0.7c1,0.4,2.1,0.8,3.1,1.1c2.3,0.8,4.7,1.6,7.1,2.3C80.4,275.4,80.9,277.1,79.9,278.1z"/>
		</g>
	</g>
	<path d="M227.8,78.2c-11.6,4.6-15.8,8.8-20.4,20.4c-0.2,0.6-1,0.6-1.2,0c-4.6-11.6-8.8-15.8-20.4-20.4c-0.6-0.2-0.6-1,0-1.2
		c11.6-4.6,15.8-8.8,20.4-20.4c0.2-0.6,1-0.6,1.2,0c4.6,11.6,8.8,15.8,20.4,20.4C228.4,77.2,228.4,78,227.8,78.2z"/>
	<path d="M78.7,199.2c-10.1,4-13.7,7.7-17.8,17.8c-0.2,0.6-1,0.6-1.2,0c-4-10.1-7.7-13.7-17.8-17.8c-0.6-0.2-0.6-1,0-1.2
		c10.1-4,13.7-7.7,17.8-17.8c0.2-0.6,1-0.6,1.2,0c4,10.1,7.7,13.7,17.8,17.8C79.3,198.2,79.3,199,78.7,199.2z"/>
	<path d="M38.9,199.2c-5.1,2.1-7.1,4.2-9.2,9.2c-0.2,0.5-1,0.5-1.2,0c-2.1-5.1-4.2-7.1-9.2-9.2c-0.5-0.2-0.5-1,0-1.2
		c5.1-2.1,7.1-4.2,9.2-9.2c0.2-0.5,1-0.5,1.2,0c2.1,5.1,4.2,7.1,9.2,9.2C39.4,198.2,39.4,198.9,38.9,199.2z"/>
	<path d="M429.8,246.4c-8,3.2-11,6.2-14.2,14.2c-0.2,0.5-1,0.5-1.2,0c-3.2-8-6.2-11-14.2-14.2c-0.5-0.2-0.5-1,0-1.2
		c8-3.2,11-6.2,14.2-14.2c0.2-0.5,1-0.5,1.2,0c3.2,8,6.2,11,14.2,14.2C430.3,245.5,430.3,246.2,429.8,246.4z"/>
</g>
</svg>
